<?xml version="1.0" encoding="UTF-8"?>
<svg id="Layer_1" data-name="Layer 1" xmlns="http://www.w3.org/2000/svg" viewBox="0 0 481 481">
  <defs>
    <style>
      .cls-1 {
        fill: #8da6d3;
      }

      .cls-1, .cls-2, .cls-3, .cls-4 {
        stroke-width: 0px;
      }

      .cls-2 {
        fill: #000;
      }

      .cls-3 {
        fill: none;
      }

      .cls-4 {
        fill: #4b4b6a;
      }
    </style>
  </defs>
  <circle class="cls-2" cx="239.52" cy="239.52" r="197.53"/>
  <path class="cls-4" d="M240.5,0C107.68,0,0,107.68,0,240.5s107.68,240.5,240.5,240.5,240.5-107.68,240.5-240.5S373.32,0,240.5,0ZM239.52,437.05c-109.09,0-197.53-88.43-197.53-197.53S130.43,41.99,239.52,41.99s197.53,88.44,197.53,197.53-88.43,197.53-197.53,197.53Z"/>
  <circle class="cls-3" cx="239.52" cy="239.52" r="197.53"/>
  <g>
    <g id="U">
      <path class="cls-4" d="M109.03,224.38l-.33,122.2,49.01-.07.26-98.03,61.41-52.37c.8-.88,8.3-8.84,21.31-8.79,13.01.04,20.37,8.03,21.15,8.92l59.42,53.59-.26,96.47,50.12-.07.32-119.89-95.56-78.9c-1.6-1.6-13.66-13.22-33.93-13.14-20.11.08-32.07,11.61-33.7,13.23-33.07,25.62-66.14,51.24-99.21,76.86Z"/>
    </g>
    <g id="N">
      <path class="cls-1" d="M370.29,126.1l1.51,119.88-94.76,80.08-.12-.14c-8.39,8.3-20.35,13.55-33.68,13.7s-25.25-4.8-33.84-12.82l-.53.29-99.45-75.91-1.54-122.19,49-.54,1.24,98.02,61.92,51.61c.84.9,8.53,8.79,21.4,8.53,10.95-.21,17.72-6.19,18.9-7.27,20.34-18.74,40.69-37.49,61.04-56.24l-1.22-96.46,50.12-.55Z"/>
    </g>
  </g>
</svg>