<svg id="Layer_1" data-name="Layer 1" xmlns="http://www.w3.org/2000/svg" viewBox="0 0 869 868.7"><defs><style>.cls-1{fill:#fff;}.cls-1,.cls-2{stroke:#000;stroke-miterlimit:10;}.cls-2{fill:none;}</style></defs><path class="cls-1" d="M1173.74,164.75l-87.92,70.49a325.9,325.9,0,0,0-48.4-18.66V408.75c-36.4,26.52-65,73.38-79.38,130.75q-.87,3.43-1.65,6.92h0c-.3,1.33-.59,2.66-.88,4V203.5l.24-.27,82.46-94a430.71,430.71,0,0,1,84.22,28l.2.09a432.09,432.09,0,0,1,45.9,24.18Q1171.15,163.12,1173.74,164.75Z" transform="translate(-509.5 -98.67)"/><path class="cls-1" d="M1378,533q0,3.25-.06,6.5-.09,6.46-.38,12.88L1269,480.81h0c0-.24-.07-.48-.11-.72a325.94,325.94,0,0,0-8.79-39.31l-.15-.54a105.59,105.59,0,0,0-38.15-7.23h-.34c-29.43.1-57.23,12.8-81.88,35.31-16.08,14.69-30.82,33.55-43.78,55.81-14.28,24.5-26.39,53.12-35.79,84.81a523.19,523.19,0,0,0-16.4,76.65,594.67,594.67,0,0,0-5.42,67.6q-.18,6.55-.19,13.17h0l.31,1.22H955.5V714q0-8.18.26-16.26a507.25,507.25,0,0,1,7.69-74.16,463.27,463.27,0,0,1,23.24-84.08c13.32-34.77,30.49-66.16,50.73-93,18.36-24.42,39.25-45.11,62-61.22,34.92-24.7,74.33-38.63,116-38.74h0v0a329.94,329.94,0,0,0-29.83-37.39l45.09-101.85a435.07,435.07,0,0,1,128.72,200,431.87,431.87,0,0,1,17,89.61Q1378,514.72,1378,533Z" transform="translate(-509.5 -98.67)"/><path class="cls-2" d="M955.74,203.23h-.24" transform="translate(-509.5 -98.67)"/><path class="cls-1" d="M1338.39,714.37A435.48,435.48,0,0,1,1180.5,897V767.13s25.25-34.67,32.92-45.61L1099,591.51a227.05,227.05,0,0,1,8.55-27.64,190.83,190.83,0,0,1,25.24-46.46,151.34,151.34,0,0,1,15-17.23l111.82,125.65Z" transform="translate(-509.5 -98.67)"/><line class="cls-2" x1="446" y1="104.83" x2="446" y2="104.55"/><path class="cls-1" d="M931.5,861.78v105a434.16,434.16,0,0,1-84.08-10.61V847.77A328.66,328.66,0,0,0,931.5,861.78Z" transform="translate(-509.5 -98.67)"/><path class="cls-1" d="M1037.42,848.42v108.5q-7.44,1.64-15,3a434.81,434.81,0,0,1-66.93,6.92V861.78q10.83-.37,21.47-1.46A327.19,327.19,0,0,0,1037.42,848.42Z" transform="translate(-509.5 -98.67)"/><line class="cls-2" x1="829" y1="615.83" x2="828.89" y2="615.7"/><line class="cls-2" x1="706.01" y1="247.81" x2="706" y2="247.83"/><path class="cls-1" d="M510,533q0,3.25.06,6.5a433.86,433.86,0,0,0,202,360.37l-2.48-135.33c-.62-.62-1.24-1.25-1.85-1.89a328.83,328.83,0,0,1-81-139.07H847.42v144H931.5V99.18C697.59,105.79,510,297.49,510,533ZM684.45,330H811.78l35.45,50.16-35.45,51.68-24.66-49.4L700,383.2,723.93,422h43.15l27,47.12H698.5l-49.79-82.44A329.81,329.81,0,0,1,684.45,330ZM650.72,556.48l-13-17.4s0,0,0,0L627,524.6h0a46,46,0,0,1-4-30l20.26-32h0l2.13-3.36.79,1.23,30.8,48.17,134.86-1.52L848,558Z" transform="translate(-509.5 -98.67)"/><path class="cls-2" d="M787.12,382.44,700,383.2,723.93,422h43.15l27,47.12H698.5l-49.79-82.44A329.81,329.81,0,0,1,684.45,330H811.78l35.45,50.16-35.45,51.68Z" transform="translate(-509.5 -98.67)"/><path class="cls-2" d="M848,558l-197.28-1.52-13-17.4s0,0,0,0L627,524.6h0a46,46,0,0,1-4-30l20.26-32h0l2.13-3.36.79,1.23,30.8,48.17,134.86-1.52Z" transform="translate(-509.5 -98.67)"/></svg>