<svg xmlns="http://www.w3.org/2000/svg" viewBox="0 0 815.26 738.09"><defs><style>.cls-1{fill:#f5f5f5;}.cls-2{fill:#00b3f0;}.cls-3{fill:#366d8b;}.cls-4,.cls-5{fill:#fff;}.cls-10,.cls-11,.cls-15,.cls-4,.cls-6,.cls-7{isolation:isolate;}.cls-4{opacity:0.95;}.cls-6,.cls-7{fill:#007cff;}.cls-6{opacity:0.15;}.cls-7{opacity:0.5;}.cls-8{fill:#ffc3bd;}.cls-11,.cls-9{fill:#1a2e35;}.cls-10{opacity:0.2;}.cls-11{opacity:0.7;}.cls-12{fill:#ff847f;}.cls-13{fill:#ff8b7b;}.cls-14{fill:#59c2ba;}.cls-15{opacity:0.6;}.cls-16{fill:#ff5551;}.cls-17,.cls-18{fill:none;stroke:#fff;stroke-linecap:round;stroke-linejoin:round;}.cls-17{stroke-width:3px;}.cls-18{stroke-width:2px;}.cls-19{fill:#05161f;}.cls-20{fill:#7dc3eb;}.cls-21{fill:#fdfdfd;}.cls-22{fill:#2b2d47;}.cls-23{fill:#3053b7;}.cls-24,.cls-32{fill:#29353b;}.cls-25{fill:#fcef00;}.cls-26{fill:#b58776;}.cls-27,.cls-28{fill:#6b4e45;}.cls-27,.cls-32{stroke:#000;stroke-miterlimit:10;stroke-width:0.25px;}.cls-29{fill:#fe4f5b;}.cls-30{fill:#38b9f9;}.cls-31{fill:#4f626c;}.cls-33{fill:#f70000;}.cls-34{fill:#ffeeea;}.cls-35{fill:#0492ff;}.cls-36{fill:#eaf5fb;}.cls-37{fill:#050100;}</style></defs><g id="Layer_2" data-name="Layer 2"><ellipse id="_Path_" data-name=" Path " class="cls-1" cx="417.8" cy="705.77" rx="397.46" ry="23.21"/><rect class="cls-2" x="552.58" y="115.06" width="2.13" height="13.49"/><path class="cls-2" d="M1141.24,249h-2.08a29.65,29.65,0,0,0-29.68-29.61v-2.13A31.78,31.78,0,0,1,1141.24,249Z" transform="translate(-586.53 -144.87)"/><rect class="cls-3" x="215.7" y="79.79" width="331.55" height="625.69" rx="11.86"/><rect class="cls-4" x="223.4" y="89.15" width="312.83" height="606.97" rx="7.29"/><circle class="cls-3" cx="379.83" cy="656.04" r="16.9"/><path class="cls-3" d="M953.44,232.36a14,14,0,0,0,27.92,2.11,14.86,14.86,0,0,0,0-2.11Z" transform="translate(-586.53 -144.87)"/><path class="cls-2" d="M1058.67,292.9H876.16A28.16,28.16,0,0,0,848.08,321v18.72a28.17,28.17,0,0,0,28.08,28.09h182.51l28.08,16.64V321A28.16,28.16,0,0,0,1058.67,292.9Z" transform="translate(-586.53 -144.87)"/><rect class="cls-5" x="294.68" y="174.85" width="172.38" height="4.68"/><rect class="cls-5" x="327.85" y="191.43" width="139.21" height="4.68"/><path class="cls-6" d="M876.16,417.61h182.51a28.15,28.15,0,0,1,28.08,28.08v18.73a28.17,28.17,0,0,1-28.08,28.08H876.16l-28.08,16.63V445.69A28.16,28.16,0,0,1,876.16,417.61Z" transform="translate(-586.53 -144.87)"/><rect class="cls-7" x="294.68" y="299.55" width="172.38" height="4.68"/><rect class="cls-7" x="294.68" y="316.14" width="79.95" height="4.68"/><rect class="cls-7" x="387.11" y="316.14" width="32.5" height="4.68"/><path class="cls-2" d="M1058.67,542.36H876.16a28.16,28.16,0,0,0-28.12,28v18.71a28.17,28.17,0,0,0,28.12,28.13h182.51l28.08,16.65V570.36A28.16,28.16,0,0,0,1058.67,542.36Z" transform="translate(-586.53 -144.87)"/><rect class="cls-5" x="294.68" y="424.26" width="172.38" height="4.68"/><rect class="cls-5" x="327.85" y="440.84" width="139.21" height="4.68"/><path class="cls-6" d="M876.16,667h71a28.17,28.17,0,0,1,28,28.09v18.71a28.17,28.17,0,0,1-28,28.1h-71l-28.08,16.64V695.1A28.17,28.17,0,0,1,876.16,667Z" transform="translate(-586.53 -144.87)"/><path class="cls-7" d="M890.36,704.45a8.3,8.3,0,1,1-8.31-8.28h0A8.3,8.3,0,0,1,890.36,704.45Z" transform="translate(-586.53 -144.87)"/><circle class="cls-7" cx="320.41" cy="552.96" r="8.29"/><path class="cls-7" d="M940.16,714.41a8.29,8.29,0,1,1-8.29-8.29h0A8.29,8.29,0,0,1,940.16,714.41Z" transform="translate(-586.53 -144.87)"/><path class="cls-8" d="M1197.7,684.51c2.26,4.49,4.27,9,6.37,13.52s4,9.09,6,13.69,3.85,9.2,5.66,13.9,3.63,9.38,5.29,14.29l-7.35-6.91a42.88,42.88,0,0,0,13.28,2.29,108.47,108.47,0,0,0,15.71-.72c5.4-.57,10.86-1.46,16.35-2.49s11.08-2.29,16.38-3.54l4.85,11.82a144.91,144.91,0,0,1-16.5,7.74,154.36,154.36,0,0,1-17.41,5.78,106.81,106.81,0,0,1-18.79,3.28,60.2,60.2,0,0,1-21.09-1.72l-4.8-1.33-2.55-5.59c-3.94-8.62-8.19-17.49-12.38-26.32-2.09-4.43-4.2-8.86-6.24-13.33s-4.14-8.92-6.08-13.38Z" transform="translate(-586.53 -144.87)"/><path class="cls-8" d="M1268.8,732.2l8.06-7.84,12.78,13.84s-4.64,8.1-16.14,3.38Z" transform="translate(-586.53 -144.87)"/><polygon class="cls-8" points="702.45 574.24 709.5 585.76 703.11 593.3 690.33 579.45 702.45 574.24"/><path class="cls-9" d="M1161.5,666.07c16.47-6.32,29.12,3.12,49.83,29.29l-24.26,25S1129.53,678.36,1161.5,666.07Z" transform="translate(-586.53 -144.87)"/><path class="cls-10" d="M1192.3,693.14c-7.76-5-14.51-3.59-20.2,1.06,2.15,8,7.67,17.11,13,24.6,1.26,1,2,1.51,2,1.51l13.51-13.95C1199.58,700.28,1196.58,695.89,1192.3,693.14Z" transform="translate(-586.53 -144.87)"/><polygon class="cls-8" points="699.87 695.12 719.5 692.84 717.88 652.57 698.25 654.84 699.87 695.12"/><path class="cls-9" d="M1306.21,829.24l-22.12.31a1.49,1.49,0,0,0-1.42,1.34l-2.5,17.41a2.93,2.93,0,0,0,2.39,3.39,2.47,2.47,0,0,0,.38,0c6.87-.23,10-.76,18.7-.88,5.34-.08,21.46.31,28.83.2,7.21-.11,7.88-8.22,4.82-8.91-13.71-3.1-21.6-7.49-26.17-11.75A4.11,4.11,0,0,0,1306.21,829.24Z" transform="translate(-586.53 -144.87)"/><path class="cls-2" d="M1312.79,824.33a2.14,2.14,0,0,0-1.89-.22l-.22.11c-1.42.76-2,3.45-2.28,5.62-.06.44-.09.86-.12,1.23,0,0,0,.1,0,.15a.43.43,0,0,0,.21.39.35.35,0,0,0,.41,0l.82-.68c.43-.39,1-.89,1.54-1.46,1.24-1.27,2.47-2.84,2.34-4A1.47,1.47,0,0,0,1312.79,824.33Zm-3.63,6c.25-2.91,1-4.92,2-5.46a1.36,1.36,0,0,1,1.4.11.58.58,0,0,1,.36.49C1313,826.62,1310.89,828.87,1309.16,830.36Z" transform="translate(-586.53 -144.87)"/><path class="cls-2" d="M1315.45,829.26c-.91-.58-2.64-.33-4.2.21-.19.06-.38.14-.56.21a7.28,7.28,0,0,0-1.54.74,5.48,5.48,0,0,0-.8.56l-.07.09a.38.38,0,0,0,0,.28.43.43,0,0,0,.26.3,16.78,16.78,0,0,0,3.19.88,5.5,5.5,0,0,0,3.39-.25,1.93,1.93,0,0,0,1-1.38A1.49,1.49,0,0,0,1315.45,829.26Zm-.11,1.45a1.22,1.22,0,0,1-.61.87l-.22.1c-1.06.42-2.89.09-4.28-.29l-.76-.23.3-.17c1.67-1,4.38-1.64,5.32-1.06C1315.25,830,1315.42,830.21,1315.34,830.71Z" transform="translate(-586.53 -144.87)"/><polygon class="cls-10" points="698.24 654.86 717.88 652.58 718.71 673.34 698.98 673.43 698.24 654.86"/><path class="cls-2" d="M1188.5,776.36s51-47.41,84-48.11c24.16-.52,41.43,79.33,41.43,79.33l-28.63.55s-5-28.24-23.8-36c-27.09,40.68-137.56,121-127,33.93C1150.75,799.83,1188.5,776.36,1188.5,776.36Z" transform="translate(-586.53 -144.87)"/><path class="cls-10" d="M1188.5,776.36s51-47.41,84-48.11c24.16-.52,41.43,79.33,41.43,79.33l-28.63.55s-5-28.24-23.8-36c-27.09,40.68-137.56,121-127,33.93C1150.75,799.83,1188.5,776.36,1188.5,776.36Z" transform="translate(-586.53 -144.87)"/><polygon class="cls-9" points="727.31 666.69 693.58 669.92 693.68 657.62 729.38 653.38 727.31 666.69"/><path class="cls-9" d="M1121.59,809s-21.92-42.77-24.56-111.72c-.62-16.24,14-31.55,30.7-32.42,14.07-.73,28.94-.92,40.94-.87s21.28,8,22.66,19.63c3,25.6,3.55,64.43,19.25,110.72Z" transform="translate(-586.53 -144.87)"/><path class="cls-10" d="M1107.27,697.64c12-13.65,16.21-9.29,18-7.65,16.74,15.15-7.83,62.31-12.75,69.27a341.57,341.57,0,0,1-6.23-53.43A27.28,27.28,0,0,1,1107.27,697.64Z" transform="translate(-586.53 -144.87)"/><path class="cls-8" d="M1144.05,623.91c-1.35,12.54-4.67,31.84-13.23,40.81,6.73,6.32,17.67,12.56,33.24,15.15,8-3.33,9.11-10.71,5.21-15.87-13.73-2.4-13.58-6.28-8.38-15Z" transform="translate(-586.53 -144.87)"/><path class="cls-10" d="M1150.91,634.13l10,14.82a26.44,26.44,0,0,0-3.05,6.58c-4.88-2-10.3-9.52-9.19-15A19.15,19.15,0,0,1,1150.91,634.13Z" transform="translate(-586.53 -144.87)"/><path class="cls-9" d="M1180.05,600.74c8,8.55,25,8.59,17.72-1.55S1173.78,594.07,1180.05,600.74Z" transform="translate(-586.53 -144.87)"/><path class="cls-8" d="M1147.4,599.82c-4.49,16.31-7.94,25.58-2.84,36.91a21.82,21.82,0,0,0,38.65,3.06c8.26-13,14.22-37.46,1.08-49.91C1171.35,577.62,1151.89,583.51,1147.4,599.82Z" transform="translate(-586.53 -144.87)"/><path class="cls-8" d="M1143.76,615c2-.35,12.18-3.44,17.12-8.19,5.57-5.34,5.61-10.51,4.07-12.88s-13.24-6.89-18.7-5.84c-8.65,1.65-6.51,17-6.4,21.11A6.86,6.86,0,0,0,1143.76,615Z" transform="translate(-586.53 -144.87)"/><path class="cls-11" d="M1143.76,615c2-.35,12.18-3.44,17.12-8.19,5.57-5.34,5.61-10.51,4.07-12.88s-13.24-6.89-18.7-5.84c-8.65,1.65-6.51,17-6.4,21.11A6.86,6.86,0,0,0,1143.76,615Z" transform="translate(-586.53 -144.87)"/><path class="cls-8" d="M1135.16,616.16a15.37,15.37,0,0,0,8,7.81c4.71,1.91,7.4-2.14,6.37-6.85-.92-4.25-4.48-10.38-9.34-10.29S1133.21,611.81,1135.16,616.16Z" transform="translate(-586.53 -144.87)"/><path class="cls-9" d="M1150.56,593c20.89,4.46,35.75,16.24,45.65,9.15,7-5,2.4-14.13-5.62-20.72-6.84-5.63-16.31-7.38-19.27-12-1.4,5.07,3.24,8.21,3.24,8.21s-18.89-2.91-24.12-7.83c-1.25,2.94,3.6,8.59,3.6,8.59s-5.34,5.06-20.61-.66C1134.44,582.64,1138.67,590.44,1150.56,593Z" transform="translate(-586.53 -144.87)"/><path class="cls-9" d="M1192.08,603.81h-.82l.07-1.06c4,.26,7.31-1.62,8.71-5.06s.81-8.76-3.78-12.71a28.73,28.73,0,0,0-5.87-3.54c-4.87-2.44-10.39-5.21-13.05-13.26l1-.34c2.53,7.64,7.61,10.19,12.52,12.65a29.81,29.81,0,0,1,6.08,3.67c5,4.3,5.64,10.09,4.08,13.93A9.23,9.23,0,0,1,1192.08,603.81Z" transform="translate(-586.53 -144.87)"/><path class="cls-9" d="M1171.09,615.74c-.45,1.3-.13,2.62.7,3s1.87-.44,2.31-1.74.13-2.62-.7-3S1171.53,614.45,1171.09,615.74Z" transform="translate(-586.53 -144.87)"/><path class="cls-9" d="M1186.55,620.36c-.44,1.3-.12,2.62.71,3s1.86-.44,2.31-1.74.13-2.62-.7-3S1187,619.11,1186.55,620.36Z" transform="translate(-586.53 -144.87)"/><path class="cls-12" d="M1180.87,618.83s.34,8.65,2.29,13.53c-3,1.24-6.48-1.28-6.48-1.28Z" transform="translate(-586.53 -144.87)"/><path class="cls-9" d="M1168.3,634.2a12.11,12.11,0,0,1-5.74-7.13.38.38,0,0,1,.28-.47h0a.4.4,0,0,1,.48.32,11.6,11.6,0,0,0,6.85,7.3.42.42,0,0,1,.25.53.39.39,0,0,1-.5.23h0A13.41,13.41,0,0,1,1168.3,634.2Z" transform="translate(-586.53 -144.87)"/><path class="cls-9" d="M1166.88,607.26a.9.9,0,0,1-.3-.28.83.83,0,0,1,.22-1.13,7.6,7.6,0,0,1,7.17-.72.87.87,0,0,1,.41,1.1.75.75,0,0,1-1,.39h0a6,6,0,0,0-5.67.63A.8.8,0,0,1,1166.88,607.26Z" transform="translate(-586.53 -144.87)"/><path class="cls-9" d="M1191.81,616.57a.83.83,0,0,1-.53-.56,6.73,6.73,0,0,0-3.89-4.48.85.85,0,0,1-.54-1,.75.75,0,0,1,.9-.57l.1,0a8.44,8.44,0,0,1,5,5.62.78.78,0,0,1-.51,1h0A.67.67,0,0,1,1191.81,616.57Z" transform="translate(-586.53 -144.87)"/><polygon class="cls-8" points="768 704.68 779.68 687.68 748.21 660.28 736.52 677.28 768 704.68"/><path class="cls-9" d="M1358.16,824.51l-13.73,17.1a1.59,1.59,0,0,0,0,2l10.73,13.28a2.71,2.71,0,0,0,3.8.47,2.44,2.44,0,0,0,.43-.42c4.32-5.58,7.2-9.86,12.77-16.78,3.42-4.26,14.19-16.73,18.92-22.61s-.68-11.57-3.16-9.6c-11.12,8.8-21,14.18-27,15A4.28,4.28,0,0,0,1358.16,824.51Z" transform="translate(-586.53 -144.87)"/><path class="cls-2" d="M1362,822.76c0-.6-.11-1.46-.25-2.36-.29-1.76-.81-3.7-1.82-4.28a1.53,1.53,0,0,0-1.38,0,2.13,2.13,0,0,0-1.32,1.39,1.8,1.8,0,0,0,0,.19c-.23,1.66,1.69,3.84,3.31,5.34.28.27.56.51.81.73l.07.06a.42.42,0,0,0,.44.07.37.37,0,0,0,.23-.35C1362,823.43,1362,823.15,1362,822.76Zm-4-5a1.41,1.41,0,0,1,.94-1,.61.61,0,0,1,.61,0c1,.56,1.51,3.61,1.67,5.89h-.07C1359,820.7,1357.83,818.93,1358,817.8Z" transform="translate(-586.53 -144.87)"/><path class="cls-2" d="M1365.77,817.41a1.48,1.48,0,0,0-1.69-.47c-1,.38-1.83,1.89-2.33,3.46-.07.2-.13.41-.18.61a8,8,0,0,0-.32,1.89,5.45,5.45,0,0,0,0,.7.49.49,0,0,0,.06.17l.07.06h0a.34.34,0,0,0,.09.08.41.41,0,0,0,.4,0,18.3,18.3,0,0,0,2.22-1.7,6.1,6.1,0,0,0,2.21-3.21A1.88,1.88,0,0,0,1365.77,817.41Zm-.26,1.5a.37.37,0,0,0,0,.23c-.28,1.22-2,2.67-3.18,3.56l-.25.18s0-.08,0-.13c.17-1.91,1.29-4.7,2.36-5.11.18-.07.43-.1.77.27A1.22,1.22,0,0,1,1365.51,818.91Z" transform="translate(-586.53 -144.87)"/><polygon class="cls-10" points="736.53 677.29 748.22 660.28 764.44 674.42 751.04 689.94 736.53 677.29"/><path class="cls-2" d="M1153.59,802.79s89.58-91,129.89-52.09c25.12,24.28,62,57.72,62,57.72L1324,829.22s-54.16-28.8-68.25-44.72c-74,82.73-140.16,88.41-134.2,24.51A249,249,0,0,1,1153.59,802.79Z" transform="translate(-586.53 -144.87)"/><polygon class="cls-9" points="765.34 663.74 741.86 693.26 731.89 686.56 755.89 655.21 765.34 663.74"/><path class="cls-8" d="M1121.88,691.5l1.77,37.32c.33,6.19.72,12.36,1.2,18.4.24,3,.56,6,.91,8.85.16,1.42.36,2.82.58,4.09s.47,2.46.64,3.17a1.86,1.86,0,0,1,.07.34c0-.17-.16-.24-.28-.45a4.65,4.65,0,0,0-1.1-1.07,2.91,2.91,0,0,0-1.12-.54c-.21-.07-.35,0-.23,0,.37.27,2.7.22,5-.32a87,87,0,0,0,15.77-5.61c5.46-2.39,10.93-5.16,16.38-8s10.94-5.92,16.26-8.9L1185.4,749a209.1,209.1,0,0,1-31.18,23.93c-2.86,1.75-5.82,3.42-8.94,5a71,71,0,0,1-10.1,4.26,47.52,47.52,0,0,1-6,1.53,28.49,28.49,0,0,1-7.66.35,20.53,20.53,0,0,1-4.84-1,19.71,19.71,0,0,1-5.25-2.82,18.88,18.88,0,0,1-4.23-4.6,23.24,23.24,0,0,1-1.41-2.53l-.77-1.87a55.22,55.22,0,0,1-1.82-6c-.46-1.82-.82-3.53-1.16-5.22-.66-3.39-1.17-6.69-1.63-10-.94-6.52-1.62-13-2.2-19.36-1.14-12.85-1.81-25.52-2-38.42Z" transform="translate(-586.53 -144.87)"/><path class="cls-9" d="M1115.59,667.45c-9.66,1.1-24.1,10.2-24.62,52.86l41.42-3.27S1151.85,663.36,1115.59,667.45Z" transform="translate(-586.53 -144.87)"/><path class="cls-2" d="M1212.5,717.2l-15.36,1a4.54,4.54,0,0,0-3.82,3.46l-7.16,33.78a2.32,2.32,0,0,0,1.52,2.9,2.39,2.39,0,0,0,.92.1l15.37-1a4.54,4.54,0,0,0,3.81-3.45l7.2-33.77a2.32,2.32,0,0,0-1.5-2.92A2.51,2.51,0,0,0,1212.5,717.2Z" transform="translate(-586.53 -144.87)"/><path class="cls-8" d="M1178.93,738l12.73-4.41-3.14,19.94s-14.18,3.12-15.36-4.5l2.06-6.8A6.41,6.41,0,0,1,1178.93,738Z" transform="translate(-586.53 -144.87)"/><polygon class="cls-8" points="619.68 590.38 614.16 608.13 601.99 608.65 605.13 588.71 619.68 590.38"/><path class="cls-9" d="M765.25,317.07c-10-23.23,44.57-47.54,60-11.38,26.18,11.38-7.28,59.76.29,68s13.26-1.75,13.26-1.75,7.64,20.37-11.84,36.7c-17.48,14.65-70,18.63-70.13-10.24C756.64,360.9,778.39,347.61,765.25,317.07Z" transform="translate(-586.53 -144.87)"/><polygon class="cls-13" points="228.89 659.9 214.22 668.44 178.98 628.15 197.27 611.67 228.89 659.9"/><path class="cls-9" d="M799.07,809.62,814.21,798a1.29,1.29,0,0,1,1.72,0l10.14,9.88a2.64,2.64,0,0,1-.26,3.73l-.21.17c-5.34,4-8.1,5.62-14.76,10.73-4.09,3.14-12.26,10-17.92,14.38S783,836.23,785,834c9-10.23,10.92-16.35,12.37-21.87A4.68,4.68,0,0,1,799.07,809.62Z" transform="translate(-586.53 -144.87)"/><path class="cls-14" d="M799.63,811.53a.4.4,0,0,0-.39-.16l-.16,0-1.58.37c-.59.16-1.28.34-2,.56h0a17.55,17.55,0,0,0-4.38,1.86,2.8,2.8,0,0,0-1,1,1.22,1.22,0,0,0,0,1.21,2.07,2.07,0,0,0,1.13.91,2.34,2.34,0,0,0,.54.09,6.74,6.74,0,0,0,3.85-1.73c.31-.25.62-.5.92-.76a30.62,30.62,0,0,0,3-2.94v0a.32.32,0,0,0,.08-.14A.38.38,0,0,0,799.63,811.53Zm-2.61,2c-2.15,2-4,3.2-5.14,3.15a1.34,1.34,0,0,1-.65-.2,1.29,1.29,0,0,1-.43-.47.48.48,0,0,1,0-.49,1.55,1.55,0,0,1,.36-.45l.15-.11a20.37,20.37,0,0,1,6-2.34l.9-.23Q797.58,813,797,813.51Z" transform="translate(-586.53 -144.87)"/><path class="cls-14" d="M799.63,811.53l0-.06a15.7,15.7,0,0,0-1.23-1.18,9.79,9.79,0,0,0-.82-.65,6.46,6.46,0,0,0-3.61-1.48,3.18,3.18,0,0,0-2.16.84c-.82.78-.76,1.38-.56,1.78.47.92,2.35,1.41,4.28,1.55h0a16,16,0,0,0,1.82,0,9.77,9.77,0,0,0,2-.25.69.69,0,0,0,.15-.07l.06,0v0a.32.32,0,0,0,.08-.14A.38.38,0,0,0,799.63,811.53ZM792,810.38c0-.08-.17-.33.37-.83l.19-.16,0,0a2.16,2.16,0,0,1,1.43-.42c1.42,0,3,1.1,4,2,.25.21.46.41.64.58-.3,0-.63.07-1,.09C795.28,811.72,792.38,811.25,792,810.38Z" transform="translate(-586.53 -144.87)"/><path class="cls-13" d="M762.07,401.36c-1,4.4-2.07,8.39-3.29,12.51s-2.49,8.14-4,12.14a211.67,211.67,0,0,1-10,23.66l-3,5.74c-1.08,1.89-2.14,3.78-3.28,5.64l-1.77,2.78c-.61.94-1.08,1.78-1.92,2.88-.41.54-.82,1.07-1.36,1.7a15.82,15.82,0,0,1-2.34,2.21,9.36,9.36,0,0,1-3.51,1.65,8.44,8.44,0,0,1-1.81.2,7.73,7.73,0,0,1-2.19-.31,8,8,0,0,1-3.51-2.13,8.51,8.51,0,0,1-2-3.48,11.19,11.19,0,0,1-.38-1.88,19.39,19.39,0,0,1,.06-4.44c.15-1.23.34-2.37.55-3.49.4-2.22.95-4.32,1.51-6.4a111.79,111.79,0,0,1,4.11-12.14L732,440l-.54,12.2c-.1,2-.14,4-.16,5.87,0,.94,0,1.86.08,2.69a6.44,6.44,0,0,0,.27,1.74v-.37a4.76,4.76,0,0,0-1.27-2.12,6.46,6.46,0,0,0-4.67-2,6.27,6.27,0,0,0-1.43.16,5.5,5.5,0,0,0-2.15.93c-.43.31-.27.15-.19,0l.47-.8,2.75-4.92c.92-1.72,1.77-3.5,2.67-5.23l2.52-5.34c3.19-7.23,6.09-14.67,8.6-22.26,1.27-3.8,2.45-7.63,3.62-11.45s2.2-7.79,3.14-11.42Z" transform="translate(-586.53 -144.87)"/><path class="cls-13" d="M755.06,380c-6,1-15.38,38.74-15.38,38.74l13.71,10.58s13.77-27.3,14.35-39.57C768.16,380.85,759.54,379.36,755.06,380Z" transform="translate(-586.53 -144.87)"/><path class="cls-13" d="M733.55,441.94l-2.31-18.8-10.76,15.79s1.38,6.5,8,7.57Z" transform="translate(-586.53 -144.87)"/><polygon class="cls-13" points="222.24 691.77 205.84 692.34 202.7 635.09 225.46 635.41 222.24 691.77"/><path class="cls-9" d="M791.25,832l18.39-.13a1.16,1.16,0,0,1,1.23,1.09L812,847.48a2.86,2.86,0,0,1-2.81,2.92h0c-6.4-.06-9.47-.42-17.56-.36-5,0-12.28.59-19.15.65s-6.78-6.74-3.87-7.37c13-2.85,15.3-6.67,19.87-10.33A4.48,4.48,0,0,1,791.25,832Z" transform="translate(-586.53 -144.87)"/><path class="cls-14" d="M754.05,379.92S745.9,382,745.78,479l65.76,5.81c3.28-27,6-43.65,27.75-97.81A185.17,185.17,0,0,0,812,380.81c-11-1.51-20-2.67-29.86-2.64C769.09,378.21,754.05,379.92,754.05,379.92Z" transform="translate(-586.53 -144.87)"/><path class="cls-10" d="M826.34,399.36l3.49,12c-2.74,7.4-5,13.93-6.93,19.82C820.9,420.1,823.68,405.68,826.34,399.36Z" transform="translate(-586.53 -144.87)"/><polygon class="cls-13" points="144.7 278.27 133.95 294.06 147.01 293.3 154 278.88 144.7 278.27"/><path class="cls-9" d="M738.05,459.44l12.4-.18a2.87,2.87,0,0,0,2.82-2.91c0-.11,0-.23,0-.34l-3.84-27.57a2.83,2.83,0,0,0-2.87-2.46l-12.37.18a2.84,2.84,0,0,0-2.82,2.86,2.31,2.31,0,0,0,0,.37L735.16,457A2.86,2.86,0,0,0,738.05,459.44Z" transform="translate(-586.53 -144.87)"/><path class="cls-13" d="M814.52,346.7c-3.46,9.51-8.22,27.06-2.55,34.11,0,0-12.25,11.1-32.61,19.79-6.85-16,2.75-22.43,2.75-22.43,11.13-1.63,12.16-9.65,11.51-17.33Z" transform="translate(-586.53 -144.87)"/><path class="cls-9" d="M769.47,335.8c-1.72,28.47-18.85,36.63-14.82,51.19,5.67,20.52,28.84,4.44,28.84,4.44s-12.6,4.09-13.4-5.86c-.66-8.14,28.44-6.92,20.36-26.21C785.28,347,769.47,335.8,769.47,335.8Z" transform="translate(-586.53 -144.87)"/><path class="cls-10" d="M808.55,353.9l-14.92,6.93a29.73,29.73,0,0,1,0,5.42c3.12.27,11.19-2.09,14.24-7.1A7.53,7.53,0,0,0,808.55,353.9Z" transform="translate(-586.53 -144.87)"/><path class="cls-13" d="M817.1,319.92c1.5,16.17,2.48,23-4.33,32.46-10.25,14.25-30.44,12.56-36.74-2.84-5.67-13.85-7.17-38,7.52-46.77a22.14,22.14,0,0,1,33.55,17.15Z" transform="translate(-586.53 -144.87)"/><path class="cls-9" d="M813.53,303.73c-12.74-8.76-23.34,8-.71,24.39S828,313.67,813.53,303.73Z" transform="translate(-586.53 -144.87)"/><path class="cls-9" d="M806.75,299c5.26,4.74-26.1,22.2-43.14,16.43s-3.38-18.82,2.84-20.42c-5.33,5.15,4,13,8.52,8.08S796.16,289.52,806.75,299Z" transform="translate(-586.53 -144.87)"/><path class="cls-14" d="M745.78,479s-34.71,147-31.67,184.06c3.55,43.38,51,113.28,51,113.28l21.79-19.76S765.26,699.29,749.26,662c5.13-37.3,50.43-142.72,50.43-178.22Z" transform="translate(-586.53 -144.87)"/><path class="cls-15" d="M745.78,479s-34.71,147-31.67,184.06c3.55,43.38,51,113.28,51,113.28l21.79-19.76S765.26,699.29,749.26,662c5.13-37.3,50.43-142.72,50.43-178.22Z" transform="translate(-586.53 -144.87)"/><polygon class="cls-14" points="204.38 614.65 178.63 633.85 172.02 628.83 200.27 606.54 204.38 614.65"/><path class="cls-10" d="M771.45,543.63c-19.11,26.48-20,75.18-18.86,102.54,6.57-25.14,20.33-62.68,31.28-96.49C783.62,536.68,780.4,531.23,771.45,543.63Z" transform="translate(-586.53 -144.87)"/><path class="cls-14" d="M758.16,479.11s12.7,126.92,17,169.76c5,50.86,12.44,132.43,12.44,132.43l24.49-1s5.37-69.16,1.38-114.73c.73-60.49,9.65-142.71-1.83-180.76Z" transform="translate(-586.53 -144.87)"/><path class="cls-15" d="M758.16,479.11s12.7,126.92,17,169.76c5,50.86,12.44,132.43,12.44,132.43l24.49-1s5.37-69.16,1.38-114.73c.73-60.49,9.65-142.71-1.83-180.76Z" transform="translate(-586.53 -144.87)"/><polygon class="cls-14" points="227.31 639.88 199.23 639.09 197.27 630.26 229.03 629.37 227.31 639.88"/><path class="cls-9" d="M792,328.84c.2,1.31-.32,2.47-1.18,2.61s-1.7-.82-1.91-2.13.33-2.47,1.18-2.6S791.77,327.54,792,328.84Z" transform="translate(-586.53 -144.87)"/><path class="cls-9" d="M777.23,331.13c.2,1.29-.33,2.47-1.18,2.6s-1.71-.82-1.91-2.12.33-2.47,1.18-2.6S777,329.83,777.23,331.13Z" transform="translate(-586.53 -144.87)"/><path class="cls-9" d="M775.71,329l-3.28-.42S774.42,330.8,775.71,329Z" transform="translate(-586.53 -144.87)"/><path class="cls-16" d="M782.07,332.41s-1.35,6-3.36,9c2,1.34,4.78.15,4.78.15Z" transform="translate(-586.53 -144.87)"/><path class="cls-9" d="M792,345.18a13.35,13.35,0,0,1-2.16.53.39.39,0,0,1-.15-.77h0a10.47,10.47,0,0,0,7.8-5.34.38.38,0,0,1,.48-.21l0,0a.37.37,0,0,1,.19.5h0A10.79,10.79,0,0,1,792,345.18Z" transform="translate(-586.53 -144.87)"/><path class="cls-13" d="M821.59,331a11.93,11.93,0,0,1-4,8.13c-3.15,2.71-6.49.32-7.09-3.58-.54-3.5.45-9.15,4.32-10.36S821.81,327.13,821.59,331Z" transform="translate(-586.53 -144.87)"/><path class="cls-9" d="M798.68,320.77a.79.79,0,0,1-.6-.13,6.15,6.15,0,0,0-5.52-.91.79.79,0,0,1-1-.5.78.78,0,0,1,.4-.94,7.71,7.71,0,0,1,7,1.07.78.78,0,0,1,.2,1.08h0A.78.78,0,0,1,798.68,320.77Z" transform="translate(-586.53 -144.87)"/><path class="cls-9" d="M770.84,325.46a.8.8,0,0,1-.57,0,.78.78,0,0,1-.38-1,7.63,7.63,0,0,1,5.48-4.46.76.76,0,0,1,.88.65.78.78,0,0,1-.65.88,6.09,6.09,0,0,0-4.3,3.59A.84.84,0,0,1,770.84,325.46Z" transform="translate(-586.53 -144.87)"/><path class="cls-13" d="M843.71,406.67c.31,3,.47,5.57.56,8.33s.15,5.44.13,8.16c-.09,5.45-.43,10.9-1.06,16.37A110.46,110.46,0,0,1,840.26,456a78.42,78.42,0,0,1-2.65,8.16c-.51,1.36-1.09,2.7-1.69,4,0,0-.3.65-.51,1a7.9,7.9,0,0,1-.75,1.19,12,12,0,0,1-1.77,2,14,14,0,0,1-3.59,2.26,20.44,20.44,0,0,1-5.81,1.48,37.09,37.09,0,0,1-4.83.2,71.45,71.45,0,0,1-8.64-.76,146.62,146.62,0,0,1-15.93-3.43c-5.15-1.41-10.22-3-15.24-4.63s-9.94-3.51-14.87-5.58l2.55-7.88c5,1.08,10,2.24,15.09,3.21s10.06,2,15.08,2.78,10,1.5,14.83,1.8a59.54,59.54,0,0,0,6.94.13,23.14,23.14,0,0,0,3-.34,6.72,6.72,0,0,0,1.7-.53c0-.05-.06,0-.31.18a2.32,2.32,0,0,0-.49.5l-.24.36c-.06.1-.18.41-.08.15.39-1.06.77-2.13,1.11-3.24.68-2.21,1.26-4.48,1.77-6.8A121.82,121.82,0,0,0,827,437.81c.44-4.88.59-9.84.58-14.8,0-2.48,0-5-.1-7.45s-.21-5-.37-7.25Z" transform="translate(-586.53 -144.87)"/><path class="cls-13" d="M839.23,387c7.07,4.62,4.67,44.82,4.67,44.82l-16.65,3.33s-.15-20.4-1.93-33.78C824.16,392.36,834.16,383.69,839.23,387Z" transform="translate(-586.53 -144.87)"/><path class="cls-14" d="M790,833.56c-.15-.1-.61-.41-1.23-.79-.44-.26-1-.56-1.52-.84l-.34-.17c-.38-.19-.76-.36-1.15-.51a4.31,4.31,0,0,0-3-.36,1.45,1.45,0,0,0-.61.51,1.62,1.62,0,0,0-.23.59,2.15,2.15,0,0,0,.34,1.88l.16.17a3.55,3.55,0,0,0,2.2.8,9.79,9.79,0,0,0,1.71,0,23.78,23.78,0,0,0,3.52-.57h0l.09,0h0l.09-.07a.35.35,0,0,0,.07-.09.41.41,0,0,0,0-.18h0A.37.37,0,0,0,790,833.56Zm-1.23.15h0c-.51.11-1,.19-1.45.25a12.81,12.81,0,0,1-2.37.14,3.11,3.11,0,0,1-2-.62,1.42,1.42,0,0,1-.3-1.38.58.58,0,0,1,.36-.49c.65-.29,2,.14,3.36.79.57.28,1.16.59,1.7.91.24.13.46.27.68.4h0Z" transform="translate(-586.53 -144.87)"/><path class="cls-14" d="M790.16,832.13c0-.32,0-.68-.08-1a8.94,8.94,0,0,0-.59-2.62,3.13,3.13,0,0,0-.71-1.08,1.93,1.93,0,0,0-1.61-.5,1.5,1.5,0,0,0-1.38,1.1,4.71,4.71,0,0,0,1,3.23l.27.4c.07.11.15.21.22.31s.24.33.37.48a7.65,7.65,0,0,0,.65.74,8.16,8.16,0,0,0,1.28,1.07.41.41,0,0,0,.29,0l.09,0h0l.09-.07a.35.35,0,0,0,.07-.09.41.41,0,0,0,0-.18h0C790.15,833.74,790.19,833,790.16,832.13Zm-3.61-4c.05-.18.17-.4.67-.46a1.12,1.12,0,0,1,1,.32l.17.17a3.57,3.57,0,0,1,.54,1.07,9.89,9.89,0,0,1,.37,1.89c.05.44.08.88.09,1.28s0,.51,0,.73c-.16-.14-.33-.29-.49-.46a10.66,10.66,0,0,1-1.22-1.49l-.14-.21A4.48,4.48,0,0,1,786.55,828.13Z" transform="translate(-586.53 -144.87)"/><path class="cls-5" d="M813.16,481l.71,6.07c.16.48-.46.9-1.22.83l-67.68-6c-.6-.05-1-.4-1-.77l.38-6c0-.41.59-.71,1.24-.66l66.6,5.89A1.1,1.1,0,0,1,813.16,481Z" transform="translate(-586.53 -144.87)"/><path class="cls-14" d="M803,487.71l1.79.16c.35,0,.65-.13.66-.36l.42-7.77c0-.23-.27-.44-.62-.47l-1.79-.16c-.35,0-.65.13-.66.36l-.42,7.77C802.36,487.47,802.64,487.68,803,487.71Z" transform="translate(-586.53 -144.87)"/><path class="cls-15" d="M803,487.71l1.79.16c.35,0,.65-.13.66-.36l.42-7.77c0-.23-.27-.44-.62-.47l-1.79-.16c-.35,0-.65.13-.66.36l-.42,7.77C802.36,487.47,802.64,487.68,803,487.71Z" transform="translate(-586.53 -144.87)"/><path class="cls-14" d="M749.88,483l1.78.16c.35,0,.66-.13.67-.36l.41-7.77c0-.23-.26-.44-.62-.47l-1.78-.16c-.36,0-.66.13-.67.36l-.42,7.77C749.24,482.77,749.52,483,749.88,483Z" transform="translate(-586.53 -144.87)"/><path class="cls-15" d="M749.88,483l1.78.16c.35,0,.66-.13.67-.36l.41-7.77c0-.23-.26-.44-.62-.47l-1.78-.16c-.36,0-.66.13-.67.36l-.42,7.77C749.24,482.77,749.52,483,749.88,483Z" transform="translate(-586.53 -144.87)"/><path class="cls-14" d="M776.43,485.36l1.79.16c.35,0,.65-.13.67-.36l.41-7.77c0-.23-.27-.44-.62-.47l-1.78-.16c-.36,0-.66.13-.67.36l-.42,7.77C775.8,485.12,776.08,485.36,776.43,485.36Z" transform="translate(-586.53 -144.87)"/><path class="cls-15" d="M776.43,485.36l1.79.16c.35,0,.65-.13.67-.36l.41-7.77c0-.23-.27-.44-.62-.47l-1.78-.16c-.36,0-.66.13-.67.36l-.42,7.77C775.8,485.12,776.08,485.36,776.43,485.36Z" transform="translate(-586.53 -144.87)"/><path class="cls-13" d="M769.1,454.74l-10.18-13.67-4.27,16.35s7.62,6.67,14.1,4.07Z" transform="translate(-586.53 -144.87)"/><polygon class="cls-13" points="159.19 293.19 156.35 307.02 170.19 314.09 172.39 296.19 159.19 293.19"/><path class="cls-9" d="M790.45,326.74l-3.29-.38S789.16,328.52,790.45,326.74Z" transform="translate(-586.53 -144.87)"/><circle class="cls-3" cx="630.22" cy="258.4" r="48.31"/><circle class="cls-2" cx="90.14" cy="236.75" r="15"/><circle class="cls-2" cx="294.68" cy="27.08" r="10.36"/><circle class="cls-3" cx="646.08" cy="530.94" r="47.77" transform="matrix(0.03, -1, 1, 0.03, -492.59, 1014.12)"/><circle class="cls-2" cx="654.43" cy="64.28" r="64.28"/><circle class="cls-2" cx="79.62" cy="101.41" r="79.62"/><polygon class="cls-17" points="44.43 100.1 114.82 69.78 103.16 133.03 77.52 113.41 102.58 83.49 66.25 107.19 44.43 100.1"/><polyline class="cls-17" points="66.25 107.19 73.24 127.78 84.03 118.39 77.52 113.41 73.44 127.08"/><polygon class="cls-17" points="654.43 37.44 632.53 91.12 654.43 79.79 676.32 91.12 654.43 37.44"/><path class="cls-18" d="M639.08,521.62H622.75a4.77,4.77,0,0,0-4.77,4.74v18.7a4.78,4.78,0,0,0,4.77,4.78h23.07l6.92,6.7V533.93" transform="translate(-586.53 -144.87)"/><path class="cls-18" d="M669.41,533.57H646.35l-6.93,6.69V510.13a4.78,4.78,0,0,1,4.74-4.77h25.21a4.78,4.78,0,0,1,4.78,4.78h0V528.8A4.79,4.79,0,0,1,669.41,533.57Z" transform="translate(-586.53 -144.87)"/><line class="cls-18" x1="61.05" y1="369.4" x2="79.5" y2="369.4"/><line class="cls-18" x1="61.05" y1="374.85" x2="79.5" y2="374.85"/><line class="cls-18" x1="61.05" y1="380.3" x2="79.5" y2="380.3"/><line class="cls-18" x1="39.61" y1="385.13" x2="52.89" y2="385.13"/><line class="cls-18" x1="39.61" y1="390.58" x2="52.89" y2="390.58"/><line class="cls-18" x1="39.61" y1="396.03" x2="52.89" y2="396.03"/><path class="cls-17" d="M1232.23,422.11h-23.67a7,7,0,0,1-7-7V393.49a2.76,2.76,0,0,0-1-2.13l-6-5.2a1,1,0,0,1,.64-1.72h37a7,7,0,0,1,7,7V415.1A7,7,0,0,1,1232.23,422.11Z" transform="translate(-586.53 -144.87)"/><line class="cls-17" x1="621.74" y1="248.62" x2="646.64" y2="248.62"/><line class="cls-17" x1="621.74" y1="255.39" x2="646.64" y2="255.39"/><line class="cls-17" x1="621.74" y1="262.16" x2="646.64" y2="262.16"/><line class="cls-17" x1="621.74" y1="268.94" x2="646.64" y2="268.94"/><path class="cls-19" d="M968.51,284.57A56.83,56.83,0,0,1,934,274.28a60.24,60.24,0,0,1-14.87-14.5,56.94,56.94,0,0,1-8.37-16.68,66.39,66.39,0,0,1-2.38-13.17,68.19,68.19,0,0,1,.36-13.33,51.8,51.8,0,0,1,2.77-11.88,57.51,57.51,0,0,1,7.35-14.44,59.92,59.92,0,0,1,19-17.43,57.94,57.94,0,0,1,30-8.25A61,61,0,0,1,1005.21,177a59.4,59.4,0,0,1,14.53,15.62,60.24,60.24,0,0,1,7.6,16.62,61.57,61.57,0,0,1,1.45,24.06,57.41,57.41,0,0,1-23.4,39.55,62.14,62.14,0,0,1-30.31,11.69,3.53,3.53,0,0,1-.56.05Zm-.22-7.33a59.31,59.31,0,0,0,8.63-.59,53.11,53.11,0,0,0,28.76-13.51c9.38-8.65,14.58-19.48,16-32.11a52,52,0,0,0-25.77-51.71,52.78,52.78,0,0,0-35.3-7,52.66,52.66,0,0,0-45.13,50.49c-.63,14.64,3.87,27.39,13.93,38.08C940,272.06,953.05,277.22,968.29,277.24Z" transform="translate(-586.53 -144.87)"/><path class="cls-20" d="M968.29,277.24c-15.24,0-28.34-5.18-38.86-16.35-10.06-10.69-14.56-23.44-13.93-38.08a52.66,52.66,0,0,1,45.13-50.49,52.78,52.78,0,0,1,35.3,7A52,52,0,0,1,1021.7,231c-1.44,12.63-6.64,23.46-16,32.11a53.11,53.11,0,0,1-28.76,13.51A59.31,59.31,0,0,1,968.29,277.24Zm.09-72.56c-4.85,0-9.22.15-13.59.47A132.57,132.57,0,0,0,936,207.66c-5.67,1.25-10.88,7-11.46,12.64a33.86,33.86,0,0,0,.28,9.59c1.61,8.93,6.76,14.9,15.25,18a61.2,61.2,0,0,0,13.53,3.3,110.24,110.24,0,0,0,32.29-.39c2.68-.45,5.3-1.19,7.94-1.88,5.9-1.56,11.06-4.16,14.73-9.14,4.08-5.53,5-11.88,4.4-18.55a14.15,14.15,0,0,0-3.9-8.6,18.84,18.84,0,0,0-10.28-5.49A145.26,145.26,0,0,0,968.38,204.68ZM944,200.51c2.32,0,4.54-2,4.52-4.09a3.4,3.4,0,0,0-3.44-3.15,4.48,4.48,0,0,0-4.27,4A2.93,2.93,0,0,0,944,200.51Z" transform="translate(-586.53 -144.87)"/><path class="cls-19" d="M968.38,204.68a145.26,145.26,0,0,1,30.38,2.48,18.84,18.84,0,0,1,10.28,5.49,14.15,14.15,0,0,1,3.9,8.6c.59,6.67-.32,13-4.4,18.55-3.67,5-8.83,7.58-14.73,9.14-2.64.69-5.26,1.43-7.94,1.88a110.24,110.24,0,0,1-32.29.39,61.2,61.2,0,0,1-13.53-3.3c-8.49-3.12-13.64-9.09-15.25-18a33.86,33.86,0,0,1-.28-9.59c.58-5.6,5.79-11.39,11.46-12.64a132.57,132.57,0,0,1,18.81-2.51C959.16,204.83,963.53,204.67,968.38,204.68Zm-12,25.09c0-4.38-2.18-8.16-5.65-9.71a9.34,9.34,0,0,0-10.43,1.53c-3.4,2.81-4.66,8.46-2.8,12.06.45.88.72,1.14,1.71.47,1.83-1.24,3.52-2.44,3.26-5a1.37,1.37,0,0,1,.15-.53,4,4,0,0,1,4.13-2.89,3.6,3.6,0,0,1,3.75,3.27c.13,2.3.94,3.89,3,4.83a1.34,1.34,0,0,1,.43.36c.6.63,1,.43,1.36-.27A8.63,8.63,0,0,0,956.42,229.77Zm43.58,0a10,10,0,0,0-3.16-7.61,9.06,9.06,0,0,0-12.27-1c-4.07,3.11-5.47,9-3.11,13,.27.46.42.7,1,.36,2.11-1.18,4.23-2.3,4-5.25a.88.88,0,0,1,.06-.27,3.88,3.88,0,0,1,4.19-3.12,3.72,3.72,0,0,1,3.82,3.52,4.58,4.58,0,0,0,2.58,4.49,2.16,2.16,0,0,1,.63.54c.56.68.9.37,1.22-.22A8.43,8.43,0,0,0,1000,229.75Z" transform="translate(-586.53 -144.87)"/><path class="cls-21" d="M944,200.51a2.93,2.93,0,0,1-3.19-3.22,4.48,4.48,0,0,1,4.27-4,3.4,3.4,0,0,1,3.44,3.15C948.5,198.49,946.28,200.49,944,200.51Z" transform="translate(-586.53 -144.87)"/><path class="cls-20" d="M956.42,229.77a8.63,8.63,0,0,1-1.06,4.12c-.36.7-.76.9-1.36.27a1.34,1.34,0,0,0-.43-.36c-2.09-.94-2.9-2.53-3-4.83a3.6,3.6,0,0,0-3.75-3.27,4,4,0,0,0-4.13,2.89,1.37,1.37,0,0,0-.15.53c.26,2.56-1.43,3.76-3.26,5-1,.67-1.26.41-1.71-.47-1.86-3.6-.6-9.25,2.8-12.06a9.34,9.34,0,0,1,10.43-1.53C954.24,221.61,956.44,225.39,956.42,229.77Z" transform="translate(-586.53 -144.87)"/><path class="cls-20" d="M1000,229.75a8.43,8.43,0,0,1-1.06,4.42c-.32.59-.66.9-1.22.22a2.16,2.16,0,0,0-.63-.54,4.58,4.58,0,0,1-2.58-4.49,3.72,3.72,0,0,0-3.82-3.52A3.88,3.88,0,0,0,986.5,229a.88.88,0,0,0-.06.27c.28,3-1.84,4.07-4,5.25-.61.34-.76.1-1-.36-2.36-4-1-9.86,3.11-13a9.06,9.06,0,0,1,12.27,1A10,10,0,0,1,1000,229.75Z" transform="translate(-586.53 -144.87)"/></g><g id="Layer_1" data-name="Layer 1"><path class="cls-22" d="M1079,824.63c-1.27,3.68-3.43,6.09-7.2,7.23-3.18,1-6.25,2.27-9.89,3.61,2.74,1.72,5.27,2.15,7.64,2.95,5.85,2,5.86,1.93,4.4,7.67a7.69,7.69,0,0,0-.09,1.45,5.78,5.78,0,0,0-.94,3.84c-2.68,4.89-3.83,10.29-5.21,15.61a1.67,1.67,0,0,0-.68,1.69,10.39,10.39,0,0,0-1,3.32,3.21,3.21,0,0,0,0,.62h0a10,10,0,0,1-.72,3.16c-.48,1.11-1,1.05-1.41,2.55-.51,2.07-.88,3-1.48,3.25-1.14.5-2.83-.54-3.14-.74-2.35-1.49-12.07-4.36-37.21-9.85l.66,0c-15.27-4.13-30.57-8.19-45.82-12.37a11.93,11.93,0,0,0-6.19-.11c-12.78,3-25.56,6.08-38.39,8.88-7,1.51-13.78,3.65-20.91,4.3a6.24,6.24,0,0,1-5.85,1.51h0c-23.74,5.33-40.49,9.11-42.2,9.57a2.65,2.65,0,0,1-2-.09,2.84,2.84,0,0,1-1.18-1.76c-.45-1.58-1.37-4.43-2.56-8.2h-.14l-1-1.45a87.34,87.34,0,0,0-5.25-15.18c-.29-2.61-1.45-5-2.36-7.37-.72-1.9,0-2.68,1.64-3.2q8.13-2.55,16.23-5.17c6.13-2,12.24-4,19.31-6.29-6-1.65-11-3-16-4.4-12.31-3.41-19.65-12-21.07-24.54-1.17-10.4,6.46-22.94,16.14-26.64a10.15,10.15,0,0,1,5.75-.14c11.18,2.13,22.51,3.17,33.78,4.66a.74.74,0,0,0,0,.14.82.82,0,0,0,0,.41c-4.15.74-8.51-.48-12.6,1.14,9.09,3.72,18.44,6.22,27.74,8.84,16.19,4.57,32.29,9.45,48.6,13.57a12.2,12.2,0,0,0,7.49-.14c15.7-5.51,31.46-10.84,47.1-16.49,3.67-1.33,7.66-2,11.43-4.53-1.14-.11-1.76-.2-2.39-.23a2.46,2.46,0,0,1-2-1.12c2.81-1,5.71-1.83,8.12-3.71l13.57-.09a33.73,33.73,0,0,1,8.28.18c13.12,1.55,20.87,9.52,22.09,22.57A49.55,49.55,0,0,1,1079,824.63Z" transform="translate(-586.53 -144.87)"/><path class="cls-23" d="M1038,658a8.81,8.81,0,0,1-.72-1.79c-7.11-8.81-15.74-15.4-26.81-18.47a65.87,65.87,0,0,0-17.78-2.44c-3.68,0-3.55-.11-3.94-3.74-.19-1.73,1.07-4-1.55-5.08-2.74.28-5.55.16-8.15,1.28a7.27,7.27,0,0,1,.88,3.74c.31,4,.33,4,4.25,3.79a5.9,5.9,0,0,0,1.39-.41c.5-2.14-1.08-4.17.11-6.77,1.67,2.23,1.14,4.65,1.42,6.81.09.71-.69,1.12-1.34,1.18-10.18,1-20.37,2.12-30.56.1a3.25,3.25,0,0,1-.85-.47l-.38-.24c-3.68.63-7.41,1.05-11,1.92-19.32,4.66-31.81,15.25-38.46,29.56-3.92,8.46-5.81,18.21-5.85,28.82h.27l16.12.08,5.08,0c1.57,0,3.14-.12,4.7-.09l.53,0,.64,0,.79.07c.38,0,.76.1,1.13.17a14,14,0,0,1,1.67.41h0l-.24,10-.12,5.13c1.29.09,2.58.25,3.87.25h6.68q17.7,0,35.39,0h39.23c1.29,0,2.58-.17,3.87-.27,0-.27,0-.54-.06-.82s-.05-.54-.08-.81c-.07-.55-.15-1.09-.24-1.63,0-.33-.11-.67-.17-1a1.11,1.11,0,0,0,0-.17l-.15-.91c-.06-.39-.11-.78-.16-1.17s-.08-.73-.1-1.09v0c0-.13,0-.27,0-.4a12.24,12.24,0,0,1,.08-2.26c0-.26.08-.53.14-.79h0c0-.13.06-.26.09-.4s.07-.26.11-.4a4.84,4.84,0,0,1-.87-1.15c-.92-1.75-.59-3.85-.91-5.73a44.66,44.66,0,0,1-.31-13.47c1.44,5.12,1.58,9.93,1.72,14.76s.49,5,5.38,5c7.45,0,14.9,0,22.34.1,4,0,4,.13,4.61-4C1048.49,682,1045.46,669.31,1038,658ZM929.91,678c.24,3.74.65,7.48.59,11.22,0,.24,0,.49,0,.73s0,.35,0,.53,0,.46,0,.7-.06.76-.1,1.14l-.09.78c0,.26-.07.51-.11.77s-.08.52-.13.78c-.1.6-.24,1.19-.39,1.79C929.56,690.27,928.79,684.09,929.91,678Z" transform="translate(-586.53 -144.87)"/><path class="cls-24" d="M1008.35,589.35a37.59,37.59,0,0,1-1.58,10.08c-2.84,9.57-9,15.58-18.86,17.6,0-5.36.09-10.72,0-16.08,0-2.39.29-4.09,2.71-5.56,3.31-2,3.89-6.3,2-9.48-1.14-2-2.85-2.47-5-2.25s-2.48,1.73-2.57,3.48a2,2,0,0,1-1.42,2.2c-9.71-5.5-15.89-14.26-20.44-24.65a35.4,35.4,0,0,0-.69,11c.14,2-.51,2.91-2.57,3.21-4.33.64-8.61,1.64-13,1.91-1.41-.09-2.89-.45-4,.91l-3.59,0-1.93-6.42c-2.07.8-1,2.72-1.79,3.81-2.65-17.67,16-41.47,42.94-35,1.07-4.19-2-7.95-1.52-12.4,2.05,1.36,2.18,3.56,3.68,5.06,1-2.16,2.08-4.26,2.95-6.06-.31,2.14-.68,4.6-1.07,7.19,2,0,2.56-1.6,3.69-2.34,2.53-1.62,5.16-2.83,8.24-2.28,7.59,1.36,10.43,9.74,5.33,15.83a44.45,44.45,0,0,1-4.07,3.76c1.67.9,3.2,1.65,4.66,2.54a10.76,10.76,0,0,1,4.11,3.68c-1.41,1.37-2.66-.55-4-.08-.58.7,0,1.4.39,2C1006.76,569.62,1008.49,579.25,1008.35,589.35Z" transform="translate(-586.53 -144.87)"/><path class="cls-25" d="M834.19,609.22a32.21,32.21,0,0,0-19,6.1,34.22,34.22,0,0,0-5.26,4.58,35.22,35.22,0,0,0-7.7,12.65,31.52,31.52,0,0,0,0,21,36.14,36.14,0,0,0,7.7,12.82,34.67,34.67,0,0,0,3.88,3.59,29.27,29.27,0,0,0,20.36,6.59c17.56,1.17,33.77-14.82,33.79-33C868,623.7,852.79,609.39,834.19,609.22ZM819,646a8.53,8.53,0,0,1-3.53-1.7,10,10,0,0,1-1.44-1.33,18.15,18.15,0,0,1-3-4.82,4.62,4.62,0,0,1-.28-2.36,4.48,4.48,0,0,1,.83-2.13,3.39,3.39,0,0,1,2.88-1.45,3.89,3.89,0,0,1,1.18.22,5,5,0,0,1,1.17.59,23.54,23.54,0,0,1,2.92,2.86c.37-.32.5-.42.61-.53s.46-.47.69-.67c2.31-2.15,4.34-2.61,5.87-1.34s1.69,5.45-.17,7.58C824.63,643.26,822.46,646.7,819,646Zm25.35,8.33c-1.16,4-5.19,6.64-10.15,6.64-5.41,0-9.29-2.65-10.7-7.31-.75-2.47-.23-3.51,2.31-3.38,5.62.29,11.21,1,16.85.94C844.77,651.15,844.82,652.7,844.36,654.28Zm12.77-14.12a15.35,15.35,0,0,1-6.92,6.6,3.17,3.17,0,0,1-1.88.21,8.35,8.35,0,0,1-3.49-2.16c-2.29-2.08-4.49-5.16-4.57-7a4.88,4.88,0,0,1,.76-3,5.07,5.07,0,0,1,1.59-1.53A2.59,2.59,0,0,1,845,633a5.26,5.26,0,0,1,1.94,1.39,20,20,0,0,1,1.71,2.35c1-.89,1.57-1.28,2-1.69l.1-.09c1.74-1.69,3.75-2.14,5.67-.59S858.12,638.18,857.13,640.16Z" transform="translate(-586.53 -144.87)"/><path class="cls-26" d="M947,582.71c.14.23.3.46.42.69A1.09,1.09,0,0,0,947,582.71Zm.35,2.42a1.82,1.82,0,0,0-.3.57,3.78,3.78,0,0,1-.54,1.23,1.5,1.5,0,0,0,.86-1.23,4.17,4.17,0,0,0,.08-.71A.94.94,0,0,1,947.3,585.13Z" transform="translate(-586.53 -144.87)"/><path class="cls-27" d="M992.67,585.91a2.39,2.39,0,0,0-.13-.21c-1.14-1.8-2.8-2.25-4.83-2a2.44,2.44,0,0,0-2.39,2,7.18,7.18,0,0,0-.18,1.44,2,2,0,0,1-1.42,2.2,40.78,40.78,0,0,1-5.37-3.64A46.19,46.19,0,0,1,968,573.81c-.94-1.5-1.82-3.07-2.63-4.68-.75-1.44-1.45-2.92-2.12-4.44a29.25,29.25,0,0,0-.71,4.44,38.58,38.58,0,0,0-.08,4.68c0,.64.06,1.28.1,1.92.14,2-.51,2.91-2.57,3.21-4.33.64-8.61,1.64-13,1.91-1.41-.09-2.89-.45-4,.91l-3.59,0c-.05,1.33-.08,2.66-.08,4,0,1.56,0,3.12,0,4.68.12,5.17.43,10.34.56,15.52.11,4.85,1.71,8.67,4.78,11.3a15.6,15.6,0,0,0,5.43,3c2.89,1,3.8,2.41,4,5,.08,1.12.29,2.23.44,3.35l5.35.06.26,0,8.67-.92a.64.64,0,0,0,.92,0l8.82,0,.36.2c2.6-1.12,5.41-1,8.15-1.28.24-3.1.47-6.22.71-9.32,0-.06,0-.11,0-.17,0-5.36.09-10.72,0-16.08,0-2.39.29-4.09,2.71-5.56a6.38,6.38,0,0,0,3-5A7.62,7.62,0,0,0,992.67,585.91Zm-28.78-4.07c1.22.14,2.85,0,2.76,1.77a7.84,7.84,0,0,1-.2,2.09c-.21.61-.7,1.07-1.81,1-.41,0-1.11-.35-1.17-.64s-.05-.27-.08-.41c-.24-1.2-.53-2.28-2.18-2.31C961.67,582.15,962.78,582,963.89,581.84ZM942,583.76c.46-1.25,1.57-1.4,2.68-1.55a4.71,4.71,0,0,1,2.28.5,1.09,1.09,0,0,1,.42.69,1.33,1.33,0,0,1,0,1.59,4.17,4.17,0,0,1-.08.71,1.5,1.5,0,0,1-.86,1.23,2.4,2.4,0,0,1-1,.18c-.41,0-1.11-.35-1.17-.64s-.1-.52-.16-.77C943.86,584.65,943.47,583.78,942,583.76Zm10.11,20c2.53-.88,4.62-1.64,6.74-2.32a1.7,1.7,0,0,1,1.29.18c.64.45.43,1.18.14,1.72C958.84,606.11,955.47,606.38,952.1,603.75Zm-.84-6c.14.62,2.42.38.68,1.42-.84.5-1.84-.3-2-1.48a2.89,2.89,0,0,1,0-1,61.36,61.36,0,0,1,1.85-6.33,37.23,37.23,0,0,1,2-4.68c.16-.33.33-.65.51-1,0,.33,0,.65,0,1a18.6,18.6,0,0,1-1,4.68c-.44,1.37-.95,2.72-1.33,4.11C951.68,595.54,951,596.48,951.26,597.74Z" transform="translate(-586.53 -144.87)"/><path class="cls-2" d="M1204.79,543.44c0,7.43-5.09,11.08-12.52,10.21-9.77-1.15-19.42-3.41-29.34-3.28-3.87,0-3.93-.13-4-4.25s0-8.12,0-12.18.1-8.12,0-12.18c-.09-2.54.82-4.19,3.36-4.4s3.76-1.72,5-3.41c2.06-2.7,3.91-5.58,6.14-8.13a12.25,12.25,0,0,0,3.1-9.81c-.13-1.31-.75-3.35,1.09-3.8a4.08,4.08,0,0,1,4.68,2.66,18.64,18.64,0,0,1,1.74,10.86c-1.65,9.4-1.36,8.16,7.53,9.44,2.7.39,5.52,0,8.26.16,2.91.22,3.61,1.19,4,3.86C1205,527.25,1204.85,535.35,1204.79,543.44Z" transform="translate(-586.53 -144.87)"/><path class="cls-28" d="M929.58,696.49v.06l-.36,15.09c-4.53.05-9.06.16-13.6.12-2.29,0-3.28.86-3,3.2.41,3.21.69,6.43,1.1,9.64,1.5,11.7,3.12,23.39,4.49,35.11.79,6.74,2.38,13.38,2.43,20.21-4.22.22-7.91-1.58-11.69-3.06-7.9-9.89-9.55-21.77-10.85-33.8-1.7-15.77-.33-31.49.49-47.23l21.47.1c3,1.77,6.27.83,9.45.62h0Z" transform="translate(-586.53 -144.87)"/><path class="cls-29" d="M820,862.78h0c.34.35.67.7,1,1.06C820.63,863.48,820.3,863.13,820,862.78Zm1.87,2.16a13.46,13.46,0,0,1,.9,1.37A10.76,10.76,0,0,0,821.83,864.94Z" transform="translate(-586.53 -144.87)"/><path class="cls-30" d="M857,872.2l-.65-.9a87.34,87.34,0,0,0-5.25-15.18c-2.07.33-4.16.58-6.21,1-8.37,1.67-16.9,2.61-24.95,5.67.34.35.67.7,1,1.06a13,13,0,0,1,.89,1.1,10.76,10.76,0,0,1,.9,1.37,9.6,9.6,0,0,1,.47,1,8.64,8.64,0,0,1,.36,1,8.17,8.17,0,0,1,.25,3,8.46,8.46,0,0,1-.22,1.27c2.86.61,5.91-.67,8.66.87a119.66,119.66,0,0,0,15.73,0h3.86a11.35,11.35,0,0,0,4.82,0l.76-.7Zm-10-6.21c-1.51-1.15-1.94-2.69-1.93-5.27C846.92,862.62,847.31,864.16,847.06,866ZM842,861.41a6.91,6.91,0,0,1,1.42,5.87A5.87,5.87,0,0,1,842,861.41Zm-3,1.92c1.05,1.5,1.76,2.73,1.4,4.66C838.84,866.65,838.27,865.38,838.93,863.33Z" transform="translate(-586.53 -144.87)"/><path class="cls-2" d="M1156,546.61c0,3.49-.25,3.62-3.48,3.79-5.26.26-6.09-.6-6.28-6a139.15,139.15,0,0,0-1.79-17.75c-.53-3.19.3-6.48-.61-9.67-.26-.93.32-1.5,1.26-1.63.32-.05.65-.06,1-.09,10-1,10-1,10,9v8.26C1156,537.22,1156.05,541.92,1156,546.61Z" transform="translate(-586.53 -144.87)"/><path class="cls-22" d="M1045.77,874.66" transform="translate(-586.53 -144.87)"/><path class="cls-22" d="M1066,872c0,.22,0,.41,0,.62a3.21,3.21,0,0,1,0-.62Z" transform="translate(-586.53 -144.87)"/><path class="cls-30" d="M823.34,872.57a36.72,36.72,0,0,1-12.84-1.68c-1.1-.32-2.27-.78-2.52-2-.31-1.59,1-2.28,2.14-2.84a28.22,28.22,0,0,1,9.52-3.25Q821.49,867.69,823.34,872.57Z" transform="translate(-586.53 -144.87)"/><path class="cls-23" d="M917.56,784.55c-4.36-.21-8.7-.64-13.06-1a.83.83,0,0,1,0-.41.74.74,0,0,1,0-.14c1.79,0,3.44,0,3.46-2.59a14.27,14.27,0,0,1,1-3.58c3.78,1.48,7.47,3.28,11.69,3.06C922,784.67,922,784.77,917.56,784.55Z" transform="translate(-586.53 -144.87)"/><path class="cls-23" d="M960,628.6a17.52,17.52,0,0,0-.32,1.9c-.31,4.88-.3,4.88-5.35,5.27l-.38-.24c.79-2.27-.8-4.79.7-7Z" transform="translate(-586.53 -144.87)"/><path class="cls-31" d="M823.59,872.59l-.25,0q-1.86-4.87-3.7-9.77l.31,0h0c.34.35.67.7,1,1.06a13,13,0,0,1,.89,1.1,10.76,10.76,0,0,1,.9,1.37,9.6,9.6,0,0,1,.47,1,8.64,8.64,0,0,1,.36,1A8.32,8.32,0,0,1,823.59,872.59Z" transform="translate(-586.53 -144.87)"/><path class="cls-28" d="M1046.49,762.65c-1.44,6.73-3.89,13-8.55,18.26-2.41,1.88-5.31,2.7-8.12,3.71l-2.82.23-1,.07c-1,0-2,0-2.92,0-4.12,0-4.22,0-3.41-4,2-9.82,4.06-19.63,6.07-29.45q3.49-17.1,6.94-34.23c1.09-5.45,1.06-5.44-4.76-5.47-3.24,0-6.47-.11-9.71-.16,0-.27,0-.54-.06-.82s-.05-.54-.08-.81c-.07-.55-.15-1.09-.24-1.63,0-.33-.11-.67-.17-1a1.11,1.11,0,0,0,0-.17l-.15-.91c-.06-.39-.11-.78-.16-1.17s-.08-.73-.1-1.09v0c0-.13,0-.27,0-.4a12.24,12.24,0,0,1,.08-2.26c0-.26.08-.53.14-.79h0c0-.26.12-.53.19-.8h0l31.22.09c-.94,3.54-.11,7.06.08,10.59C1049.94,727.9,1050.18,745.38,1046.49,762.65Z" transform="translate(-586.53 -144.87)"/><path class="cls-30" d="M1116.91,866a95.47,95.47,0,0,0-14.79-6c-9.6-3.34-19.52-5.65-29.25-8.56-2.68,4.89-3.83,10.29-5.21,15.61,4.85.92,9.7,1.87,14.57,2.72a11.69,11.69,0,0,1,3.67,1,75.72,75.72,0,0,1,14.85,1.79,24.9,24.9,0,0,0,7.61,0,10,10,0,0,1-.78-8.33c.25,2.79,1.56,5.43,1.11,8.32a73,73,0,0,0,12,.05l.87-1.13c.09-.34.17-.67.26-1C1121,867.94,1118.87,867,1116.91,866Zm-33-.15c-1.18-1.71-1.31-3.38-.29-5.8A6.27,6.27,0,0,1,1083.91,865.8Zm3,.78a11.6,11.6,0,0,1,.65-6.66C1088.66,862.7,1088.65,864.44,1086.87,866.58Zm4-.13a5.93,5.93,0,0,1,0-4.66C1091.62,863.35,1091.49,864.61,1090.87,866.45Z" transform="translate(-586.53 -144.87)"/><path d="M1048.9,699.81l-31.22-.09h0a4.54,4.54,0,0,1-.86-1.15c-.92-1.75-.59-3.85-.91-5.73a44.66,44.66,0,0,1-.31-13.47c1.44,5.12,1.58,9.93,1.72,14.76s.49,5,5.38,5c7.45,0,14.9,0,22.34.1,4,0,4,.13,4.61-4-.25,1.21-.47,2.47-.64,3.79C1049,699.27,1048.93,699.54,1048.9,699.81Z" transform="translate(-586.53 -144.87)"/><path class="cls-32" d="M1031.86,785.74a2.46,2.46,0,0,1-2-1.12l-2.82.23c-.29.48-.6.54-1,.07-1,0-2,0-2.92,0-4.12,0-4.22,0-3.41-4,2-9.82,4.06-19.63,6.07-29.45q3.49-17.1,6.94-34.23c1.09-5.45,1.06-5.44-4.76-5.47-3.24,0-6.47-.11-9.71-.16-1.29.1-2.58.27-3.87.27H975.16q-17.7,0-35.39,0h-6.68c-1.29,0-2.58-.16-3.87-.25l-5.19.07c-2.8,0-5.6.07-8.41,0-2.29,0-3.28.86-3,3.2.41,3.21.69,6.43,1.1,9.64.74,5.77,1.51,11.54,2.26,17.31.78,5.93,1.54,11.86,2.23,17.8.79,6.74,2.38,13.38,2.43,20.21,1.34,4.75,1.34,4.85-3.11,4.63s-8.7-.64-13.06-1h0c-4.15.74-8.51-.48-12.6,1.14,9.09,3.72,18.44,6.22,27.74,8.84,10,2.81,19.91,5.75,29.88,8.54,6.22,1.75,12.46,3.45,18.72,5a12.2,12.2,0,0,0,7.49-.14l7.16-2.5c13.33-4.64,26.68-9.2,39.94-14,3.67-1.33,7.66-2,11.43-4.53C1033.11,785.86,1032.49,785.77,1031.86,785.74Zm-54.8-35.2a5.86,5.86,0,0,1-5.77,5.93,5.79,5.79,0,0,1-.38-11.57A6.14,6.14,0,0,1,977.06,750.54Z" transform="translate(-586.53 -144.87)"/><path d="M987.09,635c.09.71-.69,1.12-1.34,1.18-10.18,1-20.37,2.12-30.56.1a3.25,3.25,0,0,1-.85-.47c5-.39,5-.39,5.35-5.27a17.52,17.52,0,0,1,.32-1.9l.26,0c1,2.07-.54,5,1.23,6.41s4.33.56,6.55.41c.26,0,.5-.34.8-.56-.07-1.09-.23-2.21-.21-3.33,0-1.28.2-2.57.3-3.85a.64.64,0,0,0,.92,0q.25,2.89.5,5.79c.06.81.11,1.75,1.07,1.91,2.06.34,4.25.7,6.15-.3,1.33-.7.5-2.36.7-3.58s.27-2.56.4-3.85l.36.2a7.27,7.27,0,0,1,.88,3.74c.31,4,.33,4,4.25,3.79a5.9,5.9,0,0,0,1.39-.41c.5-2.14-1.08-4.17.11-6.77C987.34,630.38,986.81,632.8,987.09,635Z" transform="translate(-586.53 -144.87)"/><path d="M929.6,696.55c0-6.19-.82-12.41.31-18.58.39,6.18,1.28,12.38-.33,18.52l0,.06Z" transform="translate(-586.53 -144.87)"/><path d="M929.6,696.55h-.06c-4,.3-7.28.41-9.54.45H902c-.68.17-2.52.69-3,0a1.13,1.13,0,0,1,0-1,100.11,100.11,0,0,1,25.87-.16C926.49,696.05,928.07,696.29,929.6,696.55Z" transform="translate(-586.53 -144.87)"/><path class="cls-33" d="M841.62,635.73c1.13-1,1.65-1.34,2.11-1.78,1.74-1.69,3.75-2.14,5.67-.59s1.72,3.82.73,5.8a15.35,15.35,0,0,1-6.92,6.6,3.17,3.17,0,0,1-1.88.21c-2.77-.52-7.93-6.34-8.06-9.12a4.78,4.78,0,0,1,2.35-4.51c1.78-1.11,3.1-.17,4.29,1A20,20,0,0,1,841.62,635.73Z" transform="translate(-586.53 -144.87)"/><path class="cls-33" d="M812.73,634.83c.37-.32.5-.42.61-.53,2.6-2.71,4.88-3.41,6.56-2s1.69,5.45-.17,7.58c-2.1,2.39-4.27,5.83-7.72,5.08-3.84-.84-6.35-4.19-8-7.85a4.62,4.62,0,0,1-.28-2.36c.43-3.21,3.4-4.59,6.06-2.77A23.54,23.54,0,0,1,812.73,634.83Z" transform="translate(-586.53 -144.87)"/><path class="cls-23" d="M977.58,635c-1.9,1-4.09.64-6.15.3-1-.16-1-1.1-1.07-1.91q-.24-2.89-.5-5.79l8.82,0c-.13,1.29-.2,2.58-.4,3.85S978.91,634.33,977.58,635Z" transform="translate(-586.53 -144.87)"/><path class="cls-23" d="M968.64,631.49c0,1.12.14,2.24.21,3.33-.3.22-.54.55-.8.56-2.22.15-4.83,1-6.55-.41s-.24-4.34-1.23-6.41l8.67-.92C968.84,628.92,968.66,630.21,968.64,631.49Z" transform="translate(-586.53 -144.87)"/><path class="cls-34" d="M960.27,603.33c-1.43,2.78-4.8,3-8.17.42,2.53-.88,4.62-1.64,6.74-2.32a1.7,1.7,0,0,1,1.29.18C960.77,602.06,960.56,602.79,960.27,603.33Z" transform="translate(-586.53 -144.87)"/><path class="cls-31" d="M951.94,599.16c-.84.5-1.84-.3-2-1.48a2.89,2.89,0,0,1,0-1,46.24,46.24,0,0,1,4.4-12c.1,3.49-1.46,6.54-2.35,9.76-.28,1-1,2-.7,3.25C951.4,598.36,953.68,598.12,951.94,599.16Z" transform="translate(-586.53 -144.87)"/><path class="cls-24" d="M966.65,583.61c-.07,1.22.26,3.18-2,3.14-.41,0-1.11-.35-1.17-.64-.27-1.36-.43-2.69-2.26-2.72.46-1.24,1.57-1.39,2.68-1.55C965.11,582,966.74,581.85,966.65,583.61Z" transform="translate(-586.53 -144.87)"/><path class="cls-31" d="M1108.69,872.43h-.33a10,10,0,0,1-.78-8.33C1107.83,866.9,1109.14,869.54,1108.69,872.43Z" transform="translate(-586.53 -144.87)"/><path class="cls-31" d="M843.39,867.28a5.87,5.87,0,0,1-1.42-5.87A6.91,6.91,0,0,1,843.39,867.28Z" transform="translate(-586.53 -144.87)"/><path class="cls-31" d="M847.06,866c-1.51-1.15-1.94-2.69-1.93-5.27C846.92,862.62,847.31,864.16,847.06,866Z" transform="translate(-586.53 -144.87)"/><path class="cls-31" d="M840.33,868c-1.49-1.34-2.06-2.61-1.4-4.66C840,864.83,840.69,866.06,840.33,868Z" transform="translate(-586.53 -144.87)"/><path class="cls-35" d="M1078.73,697c0,1.87.93,2.38,1.56,3.06Z" transform="translate(-586.53 -144.87)"/><path class="cls-22" d="M1027,784.85c-.29.48-.6.54-1,.07Z" transform="translate(-586.53 -144.87)"/><path class="cls-31" d="M1087.52,859.92c1.14,2.78,1.13,4.52-.65,6.66A11.6,11.6,0,0,1,1087.52,859.92Z" transform="translate(-586.53 -144.87)"/><path class="cls-31" d="M1083.91,865.8c-1.18-1.71-1.31-3.38-.29-5.8A6.27,6.27,0,0,1,1083.91,865.8Z" transform="translate(-586.53 -144.87)"/><path class="cls-24" d="M1090.87,866.45a5.93,5.93,0,0,1,0-4.66C1091.62,863.35,1091.49,864.61,1090.87,866.45Z" transform="translate(-586.53 -144.87)"/><path class="cls-36" d="M971.29,756.47a5.79,5.79,0,0,1-.38-11.57,6.14,6.14,0,0,1,6.15,5.64A5.86,5.86,0,0,1,971.29,756.47Z" transform="translate(-586.53 -144.87)"/><path class="cls-31" d="M971.05,745.92a4.38,4.38,0,0,1,4.36,4.75,4.12,4.12,0,0,1-4.41,4.14,4.37,4.37,0,0,1-4.44-4.2A4.51,4.51,0,0,1,971.05,745.92Z" transform="translate(-586.53 -144.87)"/><path class="cls-24" d="M947.42,584c0,.31,0,.66,0,1,0,.79-.17,1.6-.94,1.94a2.4,2.4,0,0,1-1,.18c-.41,0-1.11-.35-1.17-.64-.27-1.35-.43-2.69-2.26-2.71.46-1.25,1.57-1.4,2.68-1.55a4.71,4.71,0,0,1,2.28.5,1.09,1.09,0,0,1,.42.69A1.68,1.68,0,0,1,947.42,584Z" transform="translate(-586.53 -144.87)"/><path class="cls-25" d="M1233.41,613.26c-11.33,0-23.76,10.19-24,24.51-.19,11.28,12.08,25,24.24,23.45,12.65,1.25,24-12.05,24-23.71C1257.59,624.65,1246.25,613.21,1233.41,613.26Zm-5.36,11.12-7.53,3C1221.85,624.45,1224.18,623.58,1228.05,624.38Zm-.7,8.71c0,.14,0,.29,0,.43a2.33,2.33,0,0,1-.36,1.15.6.6,0,0,1-.09.13,1.27,1.27,0,0,1-.92.44c-1.41.12-1.77-1-1.77-2.21,0-1,.08-2,1.32-2.12a1.4,1.4,0,0,1,1.63,1c0,.12.07.25.1.38A5.11,5.11,0,0,1,1227.35,633.09Zm7,14.59c-6.06.28-10.22-2.64-12.21-8.81,2.94,3.94,6.22,7.32,11.59,7.18s8.8-3.52,11.41-8.06C1243.94,644,1240,647.41,1234.35,647.68Zm3.12-13.7c3.72-2.87,4-2.86,7-.16C1242.4,633.58,1240.5,632.83,1237.47,634Zm-.08-4c3.72-2.67,6.31-2,8.86,0Z" transform="translate(-586.53 -144.87)"/><path d="M1245.14,638c-1.2,6-5.15,9.42-10.79,9.69-6.06.28-10.22-2.64-12.21-8.81,2.94,3.94,6.22,7.32,11.59,7.18S1242.53,642.53,1245.14,638Z" transform="translate(-586.53 -144.87)"/><path d="M1237.39,630c3.72-2.67,6.31-2,8.86,0Z" transform="translate(-586.53 -144.87)"/><path d="M1220.52,627.43c1.33-3,3.66-3.85,7.53-3Z" transform="translate(-586.53 -144.87)"/><path d="M1227.34,633.09c0,1-.27,2.06-1.38,2.15-1.41.12-1.77-1-1.77-2.21,0-1,.08-2,1.32-2.12C1227,630.79,1227.26,631.91,1227.34,633.09Z" transform="translate(-586.53 -144.87)"/><path d="M1244.47,633.82c-2.07-.24-4-1-7,.16C1241.19,631.11,1241.48,631.12,1244.47,633.82Z" transform="translate(-586.53 -144.87)"/><path class="cls-25" d="M1284.41,481.74c-22.52-.16-38.94,17.09-38.69,37.61.29,22.46,18.18,36.69,37.11,37.21,21.21.58,39.29-18.26,37.75-37.11C1322.18,498.41,1302.54,481.88,1284.41,481.74ZM1297,513.6a3.62,3.62,0,0,1-2.7,3.27c-1.7-.12-3.16-2.24-3-4,.17-2.05,1.7-3.67,3.23-3.42S1297.29,511.79,1297,513.6ZM1271.2,517c-1.41.27-3.22-1.81-3.31-3.58s1.58-3.88,3-3.74c1.26.13,2.69,2,2.72,3.8C1273.37,514.93,1273.18,516.67,1271.2,517Zm1.58-16.95-9,3.12C1266.92,499.51,1267.59,499.32,1272.78,500.09Zm-4.6,28.2a5.86,5.86,0,0,1-.37-1.31,2.05,2.05,0,0,1-1-2,1.81,1.81,0,0,1-.93-1.58c0-.12,0-.24,0-.36h0a.05.05,0,0,1,0,0,1.6,1.6,0,0,1-.45-.38l0,0a1,1,0,0,1-.2-.32s0,0,0,0,0-.12,0-.14c1-.41.46.53.64.88l0,0v0a1.92,1.92,0,0,1,1,1.68.44.44,0,0,0,.41.52,1.42,1.42,0,0,1,.25.3l0,0a2.69,2.69,0,0,1,.33,1.32,10.09,10.09,0,0,1,1.89,1l0,0,.29.27.06.07a16.1,16.1,0,0,1,1.41,2.17,5.2,5.2,0,0,1-1.63-.39A3.21,3.21,0,0,1,1268.18,528.29Zm24.61,4.4a15.48,15.48,0,0,1-5.13,2.2,4.54,4.54,0,0,1-.5.12,16.57,16.57,0,0,1-13.9-3.43,22.37,22.37,0,0,1,3.29.76l0,0c1.09.32,2.17.67,3.27.95a11.44,11.44,0,0,0,6.49.09,28.31,28.31,0,0,0,7.87-3.93,37.91,37.91,0,0,0,4-3.25,14.5,14.5,0,0,1-5,6.16C1293.11,532.49,1293,532.59,1292.79,532.69Zm8.32-9.18a7.49,7.49,0,0,1-1.54,1.64c-.19-2.27.73-3.52,1.74-5.23l.23-.4c0,.12.07.25.09.36a5,5,0,0,1,.07,2.32A3.51,3.51,0,0,1,1301.11,523.51Zm.89-20.95c-3.46.17-6.09-3.15-10.6-1.42,3.24-3.21,6.68-2.39,10.6,1.42.13.07.38.18.38.22C1302.3,503.1,1302.15,503,1302,502.56Z" transform="translate(-586.53 -144.87)"/><path class="cls-37" d="M1301,520c.42-.13.83-.19,1,0,1,1.13-4.36,12.63-14.72,15-8.6,2-17.7-3-21.07-9.64A14.31,14.31,0,0,1,1265,522c1.15,2,5.84,9.46,14.67,11.27a17.67,17.67,0,0,0,6.68.13C1295.91,531.6,1300.4,521.41,1301,520Z" transform="translate(-586.53 -144.87)"/><path class="cls-37" d="M1294.34,516.87c-1.7-.12-3.16-2.24-3-4,.17-2.05,1.7-3.67,3.23-3.42s2.74,2.33,2.49,4.14A3.62,3.62,0,0,1,1294.34,516.87Z" transform="translate(-586.53 -144.87)"/><path class="cls-37" d="M1273.64,513.52c-.27,1.41-.46,3.15-2.44,3.52-1.41.27-3.22-1.81-3.31-3.58s1.58-3.88,3-3.74C1272.18,509.85,1273.61,511.73,1273.64,513.52Z" transform="translate(-586.53 -144.87)"/><path class="cls-37" d="M1302,502.56c-3.46.17-6.09-3.15-10.6-1.42,3.24-3.21,6.68-2.39,10.6,1.42Z" transform="translate(-586.53 -144.87)"/><path class="cls-37" d="M1263.81,503.21c3.11-3.7,3.78-3.89,9-3.12Z" transform="translate(-586.53 -144.87)"/><path class="cls-37" d="M1267.87,526.93c2.21,1.06,2.21,1.06,3.7,3.59a3.74,3.74,0,0,1-3.76-3.54Z" transform="translate(-586.53 -144.87)"/><path class="cls-37" d="M1299.57,525.15c-.21-2.44.88-3.71,2-5.63C1302.25,522.09,1301.53,523.5,1299.57,525.15Z" transform="translate(-586.53 -144.87)"/><path class="cls-37" d="M1266.88,525a2,2,0,0,1,1,1.93l-.06.05a2.05,2.05,0,0,1-1-2Z" transform="translate(-586.53 -144.87)"/><path class="cls-37" d="M1266.84,525a2,2,0,0,1-.95-2l0,0a2,2,0,0,1,1,1.93Z" transform="translate(-586.53 -144.87)"/><path class="cls-37" d="M1265.89,523.05c-.41-.19-.88-.82-.68-.9,1-.42.42.6.66.92Z" transform="translate(-586.53 -144.87)"/><path class="cls-34" d="M1302,502.56c.13.07.39.18.38.22-.08.32-.23.24-.38-.22Z" transform="translate(-586.53 -144.87)"/></g></svg>