<svg xmlns="http://www.w3.org/2000/svg" viewBox="0 0 493 493"><defs><style>.cls-1{fill:none;stroke:#04207a;stroke-width:6px;}.cls-1,.cls-2,.cls-4,.cls-5{stroke-miterlimit:10;}.cls-2{fill:#264ef7;stroke:#03264c;stroke-width:4px;}.cls-3,.cls-4{fill:#fff;}.cls-4{font-size:141.38px;font-family:MyriadPro-Regular, Myriad Pro;}.cls-4,.cls-5{stroke:#000;stroke-width:0.25px;}.cls-5{fill:#04207a;}</style></defs><g id="Layer_6" data-name="Layer 6"><circle class="cls-1" cx="246.5" cy="246.5" r="243.5"/></g><g id="Layer_5" data-name="Layer 5"><circle class="cls-2" cx="247.78" cy="244.34" r="188"/><path class="cls-3" d="M949.12,524.69c-.15,9.47-3,18.71-6.39,27.54-2.32,6-5,11.89-9.17,16.72-6.18,7.15-15.25,11.31-24.5,13.25s-18.79,1.86-28.25,1.76c-4.56-.05-4.76-.91-13.74-2.08-12.31-1.61-13.83-1.08-19.19-2.18a51.89,51.89,0,0,1-20.47-8.62,48.84,48.84,0,0,1-18.86-48.77,49.61,49.61,0,0,1,2.42-8.08c1.51-3.83,7.4-18.2,22.9-26.94a48.05,48.05,0,0,1,6.06-2.89c-.36,1.3-.65,2.52-.9,3.6a35.9,35.9,0,0,0,1.28,20.29c1.54,4.54,3.65,10.71,10.2,15.62a31.34,31.34,0,0,0,13.87,5.66c.94-.21,2.08-.56,2.16-1.11s-1.35-1.25-1.25-1.42.58,0,2.74.77c1.23,1.57,2.37,3,3.39,4.27,3.06,3.8,3.79,4.57,5.1,4.78a5.85,5.85,0,0,0,5-2c1.12-1.29,1.07-2.69,1-4.74a19.58,19.58,0,0,0-1.23-5.52c-.5-1.59-1-2.89-1.33-3.76-1.29-2.4-1-2.91-.8-3,.67-.5,3.19,1.34,4.27,2.17,2.22,3,5.26,6.36,7.41,5.78,3.66-1,2.61-13.07,2.42-15.25A52.66,52.66,0,0,0,888,491.45a41.63,41.63,0,0,0-8.53-12,33.58,33.58,0,0,0-12.31-8.18c-3-1.1-7.66-2.83-12.49-2.39a15.22,15.22,0,0,1-.49-4.66c.2-3.67,2.68-6.15,4.81-8.5.47-.52,1.06-1.13,1.77-1.78a9.5,9.5,0,0,0,5.5-1.09c3.73-2.09,5.12-6.43,5.92-9a22.31,22.31,0,0,0,.68-9.85,29.39,29.39,0,0,0-2.93-9.6,38.44,38.44,0,0,0-8.09-11.11c-1.1-1.07-7.16-6.92-9.2-5.5-1.2.83-.62,3.88,0,6.3,0,.92,0,3-.59,3.13-.16,0-.55,0-1.31-1.75-.33-.56-.83-1.38-1.48-2.33a14.68,14.68,0,0,0-2.46-3.07c-1.07-.93-1.8-1.58-3-1.58a3.72,3.72,0,0,0-3.12,1.68c-.42.76-.31,1.47.48,4.7.26,1.07.56,2.28.9,3.6-.46,1.45-.64,1.74-.71,1.73s.13-1-.25-1.26-1,.22-1.49.61a19.82,19.82,0,0,0-2.67,9.53v.21l-.46.6c-2.42,3.37-1.77,5.79-3.2,6.15-3.05.77-7.17-5.71-8.89-9.16-2.39-4.76-1.24-5.79-3-8.89-4.47-8-15.12-6.52-15.89-11.05-.52-3,3.87-6.15,12.66-12.39,6.11-4.34,9.16-6.51,12.6-7.95A44.57,44.57,0,0,1,859.58,385c5.08,1.55,9.58,4.52,14.44,6.65a46.56,46.56,0,0,0,42.09-2.8c2.65-1.61,5.51-3.58,8.57-3.05,2,.34,3.63,1.69,5.17,3l10.28,8.69c4.06,3.43,8.42,7.42,8.9,12.72.44,4.92-2.69,9.47-6.32,12.82-6,5.52-13.57,9-20.31,13.58A137.58,137.58,0,0,0,908,448.48c-3.4,3.07-6.89,6.28-8.7,10.48s-1.49,9.7,2,12.67c2.36,2,5.62,2.49,8.65,3.18C932.22,479.87,949.47,501.81,949.12,524.69Z" transform="translate(-648 -239)"/><path d="M946.12,524.69c-.22,10.89-3.85,21.83-8.34,31.67a40.44,40.44,0,0,1-8.53,12.78,37.33,37.33,0,0,1-11.59,7.34c-10.22,4.18-21.38,4.56-32.27,4.52-2.17,0-4.36.06-6.52-.13-.25,0-.49-.06-.73-.07,1,.06.1,0-.15,0-.57-.1-1.13-.21-1.69-.33-4.31-.91-8.65-1.51-13-2-3.29-.38-6.58-.64-9.87-.93l-1.61-.16-.69-.08c-.62-.07.59.11.18,0l-.45-.06c-1.24-.2-2.47-.45-3.69-.72a46.57,46.57,0,0,1-23.85-13,44.52,44.52,0,0,1-7-9.57c-.76-1.37-1.45-2.79-2.09-4.22-.3-.68.18.44-.14-.34l-.27-.69c-.19-.49-.37-1-.54-1.46a45.07,45.07,0,0,1-1.84-24.12,52,52,0,0,1,2.87-9.18c.29-.71-.29.65,0-.11l.27-.61c.25-.55.51-1.1.77-1.64.63-1.3,1.31-2.57,2-3.82a47.84,47.84,0,0,1,6.26-8.53,47.3,47.3,0,0,1,10.26-8.5,46.74,46.74,0,0,1,6.77-3.43L837,483.6a43.3,43.3,0,0,0-1.65,16.66,48.69,48.69,0,0,0,2.56,10.37,35,35,0,0,0,6.75,12,31.35,31.35,0,0,0,14,8.65c2.32.73,5.22,1.67,7.58.84,1.75-.61,3.34-1.87,3.27-3.9a3.84,3.84,0,0,0-1.11-2.49,6.25,6.25,0,0,0-.69-.56c-.19-.15-1.06-1-.3-.23l.78,1.32,0-.06-.77,2.92,0,0-1.32.77a1.87,1.87,0,0,1-1,.05c-.35-.05-.41-.06-.18,0a3.59,3.59,0,0,0,.47.12c.63.18,1.24.41,1.85.64l-1.32-.78a74.17,74.17,0,0,0,6.52,7.94,7,7,0,0,0,7.34,1.62,9,9,0,0,0,4.66-3.49,9.17,9.17,0,0,0,1.1-5.4,30.52,30.52,0,0,0-2.37-9.7c-.19-.51-.38-1-.61-1.52s-.37-.71-.42-.82a4.23,4.23,0,0,1-.22-.76,3.48,3.48,0,0,1,0,.8,2.27,2.27,0,0,1-.7,1.39c.36-.29-2.87,1.09-2.13.74.14-.07-.22-.12,0,0a10.72,10.72,0,0,1,.93.54c.65.41,1.28.87,1.89,1.33l-1.08-1.07c2.21,2.91,5.23,7.16,9.28,7.31,3.06.12,4.9-2.41,5.66-5.07,1.22-4.35.86-9.25.44-13.7-1.27-13.29-6.89-26.08-17.06-34.94a36.21,36.21,0,0,0-11-6.63c-4.3-1.63-8.85-2.94-13.5-2.58l2.9,2.2c-.6-2.45-.62-4.7.68-6.78a27.85,27.85,0,0,1,4.63-5.24l-2.12.88a12.33,12.33,0,0,0,9.83-3.71,19.29,19.29,0,0,0,4-7.11,28.46,28.46,0,0,0,0-18.17,41.12,41.12,0,0,0-7.23-13c-2.76-3.44-6.43-7.17-10.37-9.25-2.77-1.46-6.38-1.59-7.67,1.86a9.73,9.73,0,0,0-.06,5.11c.07.39.16.77.25,1.16s.12.5.19.75c0-.28,0-.26,0,.07s0,.6,0,.9,0,.42,0,.1c-.21.75.1.43.95-1l1.51-.41a3.39,3.39,0,0,1,1.69.66c.34.27.23.35,0-.06-.31-.58-.6-1.16-.95-1.72a36.63,36.63,0,0,0-2.69-3.87c-2-2.43-4.79-4.36-8-3.51-2.48.66-4.68,2.82-4.62,5.5s1.07,5.47,1.73,8.05v-1.6a7.54,7.54,0,0,0-.39,1.13c-.1.25-.06.15.13-.3-.16.28-.05.14.34-.43l1.33-.77h0l3.39,1.38,0-.07.41,1.52c-.07-2.12-1-4.25-3.45-4.25-2.12,0-3.64,1.62-4.49,3.37a23,23,0,0,0-2.43,10l.88-2.12a17.44,17.44,0,0,0-2.83,5c-.2.54-.36,1.08-.52,1.63,0,.11-.07.21-.1.32s.28-.48.1-.26.26-.27.24-.25a2.57,2.57,0,0,1,.77-.44s.64-.07.3,0,.3.06.29.06c-.27,0-.6-.25-.12,0-.22-.12-.44-.24-.65-.38,0,0-.37-.27-.12-.08s-.2-.18-.24-.22a16.22,16.22,0,0,1-2.41-2.82,24.19,24.19,0,0,1-3.61-7c-.64-2.33-.86-4.52-2.16-6.64-2.94-4.79-7.86-6.67-12.89-8.49l-1.28-.49c.46.19.23.1-.06,0s-.41-.21-.61-.33a4.43,4.43,0,0,0-.46-.29c-.26-.1.23.16.26.2s-.18-.11-.19-.17-.46-.67-.14-.13-.22-.48.15.32a1.88,1.88,0,0,1-.12-.48c0,.29,0,.73.07.24s-.07.74,0,.23c0-.11.19-.75,0-.22s0,0,.1-.16l.28-.45c.32-.57-.29.28.06-.1.17-.19.33-.39.51-.57a37,37,0,0,1,5.7-4.69q4.47-3.27,9-6.43a54.91,54.91,0,0,1,6.44-4,35.82,35.82,0,0,1,9.53-3,42,42,0,0,1,9.57-.58c.69,0,1.37.08,2.06.15l1,.09.47.06c.52.06-.4-.06.1,0,1.08.16,2.16.35,3.23.59,6.3,1.42,11.66,5.21,17.58,7.63a49.63,49.63,0,0,0,40.63-1.92c1.61-.82,3.12-1.78,4.67-2.7,1.25-.73,2.7-1.64,4.19-1.61a6,6,0,0,1,3.46,1.69c1.56,1.27,3.08,2.59,4.61,3.89,2.93,2.48,5.93,4.88,8.75,7.47,2.15,2,4.4,4.31,5.23,7,1.84,6.05-3.93,11.54-8.48,14.87-5.9,4.32-12.53,7.5-18.43,11.82-3.23,2.36-6.3,4.92-9.3,7.56a111.36,111.36,0,0,0-8.18,7.63c-4.5,4.89-7.88,11.8-5.26,18.46a12.25,12.25,0,0,0,7.53,7.11c3.06,1.15,6.37,1.5,9.49,2.51a46.36,46.36,0,0,1,14.74,8.13,50.07,50.07,0,0,1,17.65,29.54,43,43,0,0,1,.66,8.23c0,3.86,6,3.86,6,0,.15-13.35-5.24-26.28-14-36.21a54.69,54.69,0,0,0-15.19-12,51.41,51.41,0,0,0-9.25-3.8c-3.16-.95-6.88-1.1-9.73-2.84a5.29,5.29,0,0,1-1.48-1.31c.14.18-.25-.39-.3-.48s-.48-1-.41-.79a8.16,8.16,0,0,1-.5-4.1,11.7,11.7,0,0,1,1.16-3.81,20.53,20.53,0,0,1,3-4.25,107.07,107.07,0,0,1,8.68-8.09,103.12,103.12,0,0,1,9.63-7.67c6.42-4.4,13.48-7.78,19.5-12.77,5.75-4.77,10.92-12.28,8-20a23.41,23.41,0,0,0-6.39-8.86c-3-2.82-6.3-5.41-9.46-8.08s-6.23-6.11-10.34-6.72c-4.39-.66-7.9,2-11.52,4a43.72,43.72,0,0,1-40.61,1C867.17,385,861.67,382,855.24,381a48.41,48.41,0,0,0-21.76,1.5c-6.3,2-11.42,5.72-16.75,9.51-3,2.16-6.11,4.29-9,6.65a15.6,15.6,0,0,0-4.46,5,6.06,6.06,0,0,0,.8,6.79c1.44,1.67,3.72,2.41,5.72,3.13,1.11.39,2.22.77,3.31,1.21.32.13,0,0-.08,0l.38.17.88.43c.59.31,1.17.65,1.73,1,.1.07.67.5.33.23.27.22.53.45.79.69l.64.66a2.48,2.48,0,0,1,.51.64,11.13,11.13,0,0,1,1,1.81c-.2-.45,0,.09.07.26a8.46,8.46,0,0,1,.23.9,29.25,29.25,0,0,0,2.87,8.09,26.71,26.71,0,0,0,5.39,7.25c2.22,2,5.74,3.45,8.19.94,1-1,1.26-2.55,1.72-3.87.56-1.62,2.12-2.94,2.22-4.77a18.85,18.85,0,0,1,.81-4.82,14.75,14.75,0,0,1,1.45-3.25l-1.08,1.08a3.21,3.21,0,0,1,.48-.34c.2-.13.22-.14.06,0h-1.59l.23.05-1.32-.77.12.15-.77-1.32c-.21-.66,0-.12,0,.17a3.17,3.17,0,0,0,.45,1.65,3,3,0,0,0,3.39,1.38,3.3,3.3,0,0,0,2.15-2,5.76,5.76,0,0,0,.49-4c-.27-1.06-.54-2.12-.79-3.18-.14-.59-.29-1.17-.41-1.76l-.12-.59c-.14-.58,0,.28,0,0s.14-1-.07-.06c.09-.39-.15.51-.18.31s.48-.34.74-.12a16.94,16.94,0,0,1,3.64,4.51c1.07,1.73,1.9,4.06,4.32,4.09,2.89,0,3.57-2.92,3.67-5.19a11.86,11.86,0,0,0-.47-3.24c-.07-.33-.19-1-.21-1.09s0-.47-.05-.7-.07-.86,0-.53v.11c.17-.51.05-.36-.35.47a2.12,2.12,0,0,1-.75.45s-.83.1-.33.07c-.12,0-.7-.21-.26,0,.19.08.93.39.28.07.37.18.73.37,1.09.59l.9.59c.14.1.92.68.51.36.64.49,1.25,1,1.85,1.55,1,.87,1.95,1.79,2.87,2.74a35.64,35.64,0,0,1,6.42,9.12A28.22,28.22,0,0,1,870,435.85a18.79,18.79,0,0,1-.48,6.34c-.22.84-.5,1.68-.79,2.5-.13.37-.26.73-.41,1.09-.22.53.31-.63-.13.28-.11.24-.23.48-.35.71-1,1.81-2,3.28-4.07,3.94-1.29.41-2.59,0-3.85.37-1.43.4-2.6,2-3.57,3.08a21.69,21.69,0,0,0-4.4,6.33,15.15,15.15,0,0,0-.21,9.23,3,3,0,0,0,2.89,2.2c5.28-.4,11,1.51,15.55,4.11a36.94,36.94,0,0,1,10.55,9.33,47.47,47.47,0,0,1,5.69,9.84c.07.14.28.64,0,.05l.25.6.45,1.18c.41,1.1.79,2.23,1.13,3.36a51.81,51.81,0,0,1,1.71,7.77,58.57,58.57,0,0,1,.53,9.63c0,.9-.1,1.78-.18,2.67-.06.59,0,.08,0,0,0,.25-.07.49-.12.73s-.16.76-.27,1.13c-.06.2-.14.4-.2.61.19-.65.17-.33.07-.17s-.71.95-.1.28c-.39.43.18-.1.46-.15-.5.08.35,0,.33,0,.23,0,.2,0-.11,0s-.35-.12-.08,0c-2.2-1.09-3.37-3.86-5.38-5.4-1.73-1.31-4.07-3.16-6.39-2.55-2.48.66-3,3.29-2.16,5.42.88,2.31,1.89,4.63,2.61,7.18a17.67,17.67,0,0,1,.46,1.94c-.07-.46,0,.05,0,.12,0,.49.06,1,.07,1.48,0,.26,0,.51,0,.77,0,0-.13,1,0,.57-.07.38,0,.48-.58.92a3.88,3.88,0,0,1-1.31.6c.14,0,0,0-.34,0s-.51,0-.09,0l-.19-.05s-.3-.11-.31-.09c.06-.14.77.4.24.05s.52.54.09.09c-.13-.14-.29-.26-.42-.4a68.27,68.27,0,0,1-5.54-6.71,5.13,5.13,0,0,0-2.23-1.92,19,19,0,0,0-2-.67,3.7,3.7,0,0,0-3.69.67,3,3,0,0,0-.77,2.91,3.3,3.3,0,0,0,1.48,1.95c.1.08.22.15.31.23-.23-.2-.27-.22-.12-.08s.12.11-.14-.15l-.41-1.52.05-.4.77-1.33c.12-.13.52-.14.14-.1s-.62.18-.9.24h1.59c-7.37-1.17-14.42-4.77-18.43-11.18a34.45,34.45,0,0,1-3.59-8.15,38.88,38.88,0,0,1-1.85-7.8,38.43,38.43,0,0,1,1.52-14.34c.55-2-1.49-4.58-3.69-3.69A56,56,0,0,0,807,516.44a51.78,51.78,0,0,0,7.15,45.34,51.05,51.05,0,0,0,25.25,18.77,71.92,71.92,0,0,0,17.5,3.22c4.61.39,9.24.88,13.8,1.66a83,83,0,0,0,8.55,1.47,141.42,141.42,0,0,0,16.47-.09,81.84,81.84,0,0,0,17.82-2.61c10.41-2.9,19.8-8.71,25.71-17.91a80,80,0,0,0,7.19-15.44,92.59,92.59,0,0,0,4.79-17,63.42,63.42,0,0,0,.88-9.12C952.2,520.83,946.2,520.83,946.12,524.69Z" transform="translate(-648 -239)"/><text class="cls-4" transform="translate(327.76 303.27) rotate(5.73) scale(0.64 1)">%</text><path class="cls-5" d="M952.84,247.23l-8.64,54.52a187.38,187.38,0,0,0-19.8-4.23,189.43,189.43,0,0,0-22.71-2.21l8.66-54.68q11,.74,22.16,2.49Q942.86,244.77,952.84,247.23Z" transform="translate(-648 -239)"/><path class="cls-5" d="M1016.19,272.13l-22.77,50.29a190.06,190.06,0,0,0-39.29-17.48L977,254.51q10.44,3.63,20.71,8.27Q1007.22,267.1,1016.19,272.13Z" transform="translate(-648 -239)"/><path class="cls-5" d="M1071,315.88l-37.17,40.81a190,190,0,0,0-32-28.74L1039.14,287q8.82,6.68,17.15,14.26Q1064,308.33,1071,315.88Z" transform="translate(-648 -239)"/></g></svg>