<svg xmlns="http://www.w3.org/2000/svg" viewBox="0 0 493 493"><defs><style>.cls-1{fill:none;stroke:#04207a;stroke-width:6px;}.cls-1,.cls-2,.cls-4{stroke-miterlimit:10;}.cls-2{fill:#264ef7;stroke:#13225b;stroke-width:4px;}.cls-3,.cls-4{fill:#fff;}.cls-4{font-size:141.38px;stroke:#000;stroke-width:0.25px;font-family:MyriadPro-Regular, Myriad Pro;}</style></defs><g id="Layer_6" data-name="Layer 6"><circle class="cls-1" cx="246.5" cy="246.5" r="243.5"/></g><g id="Layer_1" data-name="Layer 1"><path d="M885.88,448.55c9,5.37,15.16,18.72,15.16,33.56,0,16.55-7.44,30.95-18.09,35l-2.52,1-.06,2.7a20.44,20.44,0,0,1-1.94,8.28c0,.1-.09.19-.13.26-.48-.19-1.14-.53-1.63-.78a13.82,13.82,0,0,0-6.06-1.95h-.21a12.18,12.18,0,0,0-1.33.08l-.34,0a5.68,5.68,0,0,1-.79-3,25.59,25.59,0,0,1,.41-5.37l.44-2.42-2-1.48c-8.21-6.2-13.31-18.58-13.31-32.32,0-12.94,4.63-24.75,11.88-31.15a5.81,5.81,0,0,0,1.36,1.83,7,7,0,0,0,4.13,1.67l.62.08,6,.72a11.5,11.5,0,0,0,1.51.11,6.52,6.52,0,0,0,3.09-.72c2.55-1.34,3.26-4,3.56-5.16.08-.31.16-.63.25-.94m-2.15-5.4a19.27,19.27,0,0,0-2,5.33,3.86,3.86,0,0,1-1.55,2.63,2.6,2.6,0,0,1-1.23.26,8.76,8.76,0,0,1-1-.08l-6.59-.8a3.32,3.32,0,0,1-1.91-.64,3.38,3.38,0,0,1-.85-1.77l-.91-3.58c-10.62,5.63-18.19,20.34-18.19,37.61,0,15.43,6,28.82,14.9,35.51a29.93,29.93,0,0,0-.47,6.2c.09,3,1.34,6.61,4.29,6.87h.31c.62,0,1.24-.12,1.86-.12h.11c2.87.06,5.69,2.87,8.21,2.87a3,3,0,0,0,1.73-.54,5.11,5.11,0,0,0,1.59-2.14,24.33,24.33,0,0,0,2.33-9.92c11.9-4.53,20.67-20.15,20.67-38.74,0-18.91-9.09-34.76-21.31-39Z" transform="translate(-648 -239)"/><path class="cls-2" d="M916,296.42l-43,.29C779.91,308,707.78,387.22,707.78,483.34c0,103.83,84.17,188,188,188s188-84.17,188-188C1083.78,386.34,1010.32,306.5,916,296.42Zm-20.22-1.08A188.3,188.3,0,0,0,873,296.71l43-.29A187.58,187.58,0,0,0,895.78,295.34Z" transform="translate(-648 -239)"/><path d="M885.88,448.55c9,5.37,15.16,18.72,15.16,33.56,0,16.55-7.44,30.95-18.09,35l-2.52,1-.06,2.7a20.44,20.44,0,0,1-1.94,8.28c0,.1-.09.19-.13.26-.48-.19-1.14-.53-1.63-.78a13.82,13.82,0,0,0-6.06-1.95h-.21a12.18,12.18,0,0,0-1.33.08l-.34,0a5.68,5.68,0,0,1-.79-3,25.59,25.59,0,0,1,.41-5.37l.44-2.42-2-1.48c-8.21-6.2-13.31-18.58-13.31-32.32,0-12.94,4.63-24.75,11.88-31.15a5.81,5.81,0,0,0,1.36,1.83,7,7,0,0,0,4.13,1.67l.62.08,6,.72a11.5,11.5,0,0,0,1.51.11,6.52,6.52,0,0,0,3.09-.72c2.55-1.34,3.26-4,3.56-5.16.08-.31.16-.63.25-.94m-2.15-5.4a19.27,19.27,0,0,0-2,5.33,3.86,3.86,0,0,1-1.55,2.63,2.6,2.6,0,0,1-1.23.26,8.76,8.76,0,0,1-1-.08l-6.59-.8a3.32,3.32,0,0,1-1.91-.64,3.38,3.38,0,0,1-.85-1.77l-.91-3.58c-10.62,5.63-18.19,20.34-18.19,37.61,0,15.43,6,28.82,14.9,35.51a29.93,29.93,0,0,0-.47,6.2c.09,3,1.34,6.61,4.29,6.87h.31c.62,0,1.24-.12,1.86-.12h.11c2.87.06,5.69,2.87,8.21,2.87a3,3,0,0,0,1.73-.54,5.11,5.11,0,0,0,1.59-2.14,24.33,24.33,0,0,0,2.33-9.92c11.9-4.53,20.67-20.15,20.67-38.74,0-18.91-9.09-34.76-21.31-39Z" transform="translate(-648 -239)"/><path class="cls-3" d="M951.14,440c-1.06-6.58-6.91-42.8-16.8-43.45-5.82-.37-11.06,11.6-14.55,21.71-2.13,3.13-7.16,10.16-9.21,9.11-.58-.3-1.67-1.6-.14-9.5.25-2.8.57-6.92.7-11.94.21-7.75.3-11.84-.79-17.07-1.26-6.07-2.11-10.23-5.83-13.34-3.54-2.94-9.4-4.7-13.95-2.6-3.14,1.46-4.44,4.19-9.43,17.34-1.68,4.38-3.53,9.31-5.51,14.72-4.88,3.72-6.13,4.26-6.34,4-.38-.43,2.8-3.1,2.13-5-.59-1.58-3.7-1.9-6.21-1.91a75.61,75.61,0,0,0-30.84,25.46c-13,18.61-14,38.16-14.64,52.5-.47,9.61-1.37,33.76,11.06,60.67,7.21,15.63,19.59,42.43,42.3,46.29,16.89,2.85,31.5-8.31,40-14.83,13.74-10.5,20.57-23.16,25.16-31.88,8.57-16.27,11.2-30.52,13-40.69C952.69,491.55,955.85,469.08,951.14,440Zm-66.77,80.85a24.33,24.33,0,0,1-2.33,9.92,5.11,5.11,0,0,1-1.59,2.14c-2.93,2-6.39-2.26-9.94-2.33-.76,0-1.52.17-2.28.11-3-.26-4.2-3.91-4.29-6.87a29.93,29.93,0,0,1,.47-6.2c-8.86-6.69-14.9-20.08-14.9-35.51,0-17.27,7.57-32,18.19-37.61l.91,3.58a3.38,3.38,0,0,0,.85,1.77,3.32,3.32,0,0,0,1.91.64l6.59.8a3.74,3.74,0,0,0,2.25-.18,3.86,3.86,0,0,0,1.55-2.63,19.27,19.27,0,0,1,2-5.33c12.22,4.2,21.31,20.05,21.31,39C905,500.7,896.27,516.32,884.37,520.85Z" transform="translate(-648 -239)"/><path d="M954,439.2c-1.63-10.11-3.57-20.31-7-30-1.65-4.65-3.69-10.25-7.63-13.5a8,8,0,0,0-7.27-1.9c-3.63,1-6.19,4.35-8.07,7.38a70.92,70.92,0,0,0-5.86,12.62,28.27,28.27,0,0,1-1.18,3.27c.2-.38-.33.39-.37.45-.24.34-.47.68-.71,1a38.33,38.33,0,0,1-3.12,3.95,18.94,18.94,0,0,1-1.61,1.62l-.38.32c.1-.08.48-.28,0-.07a3,3,0,0,0-.35.21c-.42.35.56-.15.06,0a2.16,2.16,0,0,1,1.87.54c-.33-.32.45.64.27.36-.32-.51.08.44.08.23a2.85,2.85,0,0,0-.13-.48c-.19-.66,0,.47,0,0,0-.68,0-1.37,0-2,.13-2.08.63-4,.81-6.14.4-4.62.59-9.25.7-13.89a74.19,74.19,0,0,0-.51-12.47,44.51,44.51,0,0,0-3.19-12.13,16.59,16.59,0,0,0-9.25-8.3,15.12,15.12,0,0,0-12.64.32,11.06,11.06,0,0,0-4.06,4.09,53.1,53.1,0,0,0-3.85,8.44c-1.79,4.5-3.49,9-5.18,13.57q-1.41,3.77-2.79,7.53l1.38-1.79c-1.47,1.12-3,2.25-4.51,3.24-.36.22-.77.4-1.12.64s.83-.28.31-.14a2.81,2.81,0,0,1,3.05,1.29l.41,1.52c0,1.28-.54,1.51,0,.75.16-.23.33-.45.5-.68a11.07,11.07,0,0,0,1.09-1.77c.94-2,1-4.4-.78-6-1.57-1.45-3.75-1.82-5.8-2a6.9,6.9,0,0,0-3.55.32c-.53.23-1.05.48-1.56.73a80.56,80.56,0,0,0-15.59,9.89,78,78,0,0,0-26.75,43.33A131.48,131.48,0,0,0,817,475.66c-.27,4.95-.51,9.9-.43,14.86a127.42,127.42,0,0,0,9.22,46.07c2.47,6,5.3,12,8.31,17.81a110.53,110.53,0,0,0,10.17,16.33,58,58,0,0,0,14.71,14,36.94,36.94,0,0,0,20.48,5.79c8-.21,15.68-3,22.56-7a106.73,106.73,0,0,0,17.41-12.6c11.31-10,19.45-23.48,25.38-37.24a147.22,147.22,0,0,0,10.16-38.13,183.68,183.68,0,0,0,.92-42.05c-.43-4.78-1.05-9.55-1.81-14.3-.25-1.6-2.25-2.49-3.69-2.09a3.07,3.07,0,0,0-2.09,3.69A187,187,0,0,1,950,485.89c-.2,2.44-.46,4.89-.77,7.32,0,.13-.13,1-.07.5s0,.36-.06.45l-.21,1.4c-.12.8-.25,1.61-.38,2.41-1,5.74-2.09,11.47-3.6,17.09a122.36,122.36,0,0,1-17.66,38,76.08,76.08,0,0,1-15.37,16.33,99,99,0,0,1-15.18,10.17c-6.19,3.23-13.06,5.3-20.12,4.88a30.93,30.93,0,0,1-16.46-6.15,57.34,57.34,0,0,1-11.89-12.15A113,113,0,0,1,839,550.83c-6.47-12.54-11.77-25.54-14.38-39.46a139,139,0,0,1-1.81-32.21c.69-14,2.27-27.88,8.64-40.71a72.07,72.07,0,0,1,29.4-30.75c1.93-1.08,3.9-2.07,5.91-3l-1.51.41a14.2,14.2,0,0,1,2.86.22,5.57,5.57,0,0,1,.8.22l.15.05c-.25-.1-.22-.07.08.08-.1-.14-.26-.2-.37-.36-.15-.89-.23-1.12-.22-.72,0,.22,0,.16,0-.18-.23.58,0,.09,0,0-.13.18-.23.42-.35.61-.21.35-.46.69-.7,1a4.94,4.94,0,0,0-1.16,2.37,3.18,3.18,0,0,0,4.14,3.43,12.25,12.25,0,0,0,3.47-1.95c1-.67,1.9-1.37,2.83-2.07a4.82,4.82,0,0,0,1.85-2.32c.32-.84.61-1.68.92-2.51,1-2.57,1.9-5.13,2.87-7.69s2-5.16,3-7.74c.42-1.09.84-2.18,1.28-3.27l.57-1.41.3-.73c-.19.45.13-.29.16-.36a35.85,35.85,0,0,1,1.85-3.79c.24-.41.53-.79.77-1.19s-.5.53.07-.07c.15-.16.29-.33.45-.48a5,5,0,0,0,.42-.36c-.13.16-.58.36-.08.08a9.87,9.87,0,0,1,.92-.5,9,9,0,0,1,6-.07,12.16,12.16,0,0,1,5.09,2.85,7,7,0,0,1,1.47,1.86c.24.4.45.82.66,1.24a9.19,9.19,0,0,1,.47,1.25,47.65,47.65,0,0,1,2.42,12.3,137.39,137.39,0,0,1-.19,15.32q-.16,3.38-.46,6.74c-.17,2.08-.76,4.42-.84,6.67s.22,5,2.4,6.27c3.8,2.17,7.59-2.59,9.63-5.17a51.8,51.8,0,0,0,3.42-4.64,17.59,17.59,0,0,0,1.38-3.39c.47-1.3,1-2.6,1.48-3.88a61.58,61.58,0,0,1,3.07-6.59c.52-1,1.07-1.9,1.67-2.81a13.14,13.14,0,0,1,1.49-2,13.9,13.9,0,0,1,1-1l.41-.36c-.42.34-.07.07,0,0s1.24-.63.55-.37c.3-.12,1.27-.24.49-.21.16,0,1.19,0,.51,0s.06,0,.25.08c.58.13.13.15,0,0a3,3,0,0,0,.68.38c.39.23.39.32,0,0,.2.17.41.33.6.52a14,14,0,0,1,1.09,1.21c.27.31-.43-.63-.07-.1.07.11.15.21.22.31s.33.48.49.73c.36.56.69,1.13,1,1.72s.62,1.2.91,1.81c.15.32.3.64.44,1l.24.55c-.21-.48,0-.05.08.19.6,1.48,1.14,3,1.64,4.49,1.08,3.24,2,6.53,2.8,9.85,1.33,5.44,2.41,10.94,3.33,16.46l.36,2.18a3,3,0,0,0,3.69,2.09A3.07,3.07,0,0,0,954,439.2Z" transform="translate(-648 -239)"/><path d="M881.37,520.85a19.44,19.44,0,0,1-2.47,9.44c-.58.93-.12.13-.13.16.18-.07.12-.06-.17,0,.34,0,.34-.05,0,0l.24,0c-.19,0-.38-.08-.57-.14s-.85-.31-.44-.14c-1.37-.57-2.63-1.36-4-1.91a10.22,10.22,0,0,0-4.65-.63s-1.33,0-.7,0c-.31-.1-.36-.12-.17-.05s.14,0-.14-.11c.43.35-.17-.19-.25-.28.33.39-.15-.27-.2-.37a7.7,7.7,0,0,1-.73-2.76,25.39,25.39,0,0,1,.35-5.71,3.19,3.19,0,0,0-1.38-3.39c.41.31-.39-.33-.37-.31l-.6-.51c-.44-.39-.87-.79-1.29-1.21a29.51,29.51,0,0,1-2.42-2.7,38.65,38.65,0,0,1-3.68-5.84A47,47,0,0,1,853,489.29c-1.43-10.85.32-22.58,5.95-31.93a27.18,27.18,0,0,1,10.31-10.27l-4.4-1.79c.63,2.51.93,5.68,3.27,7.24a8.75,8.75,0,0,0,4,1l4.23.51c2.86.35,5.8.46,7.43-2.43,1.23-2.19,1.3-4.81,2.58-7L882.93,446l.81.3c.51.19-.16-.09.34.14s1.13.54,1.68.85,1,.59,1.5.91l.74.5c.11.08.78.59.47.34a29.81,29.81,0,0,1,5.27,5.43,42.15,42.15,0,0,1,7.06,16.05c2.73,12.16,1.19,26-5.34,36.62a29.23,29.23,0,0,1-5.47,6.68,18.65,18.65,0,0,1-3.11,2.38c-.58.36-1.17.7-1.78,1l-.92.44-.17.08-.44.18a3.08,3.08,0,0,0-2.09,3.69,3,3,0,0,0,3.69,2.09c12.15-4.72,19.17-17.32,21.65-29.56,2.79-13.8,1-29.45-6.94-41.34-3.77-5.65-8.89-10.31-15.35-12.58a3,3,0,0,0-3.39,1.38,22,22,0,0,0-2.16,5.62c0,.1-.44,1.44-.43,1.45s.72-.77.51-.35a9.92,9.92,0,0,1-2.28-.21l-3.06-.37-1.41-.17-.94-.12q.25,0-.06,0c-.2-.06-.22-.06-.07,0a.69.69,0,0,1,.44.47s-.29-1.1-.29-1.09l-.8-3.14a3,3,0,0,0-4.4-1.79c-9.77,5.25-15.62,16-18.09,26.46a58.24,58.24,0,0,0,3.47,37.47,38,38,0,0,0,11.33,14.37l-1.38-3.39c-.74,4.25-1.22,9.17,1,13.1a7.15,7.15,0,0,0,4.63,3.62,18.19,18.19,0,0,0,3.38,0c.37,0,.42,0,.14,0l.62.16a3.67,3.67,0,0,1,.82.32,27.56,27.56,0,0,0,4.85,2.15,6.35,6.35,0,0,0,6.2-1.68c1.59-1.62,2.44-4.17,3.08-6.29a28.47,28.47,0,0,0,1.15-7.39C887.48,517,881.48,517,881.37,520.85Z" transform="translate(-648 -239)"/><text class="cls-4" transform="translate(327.76 303.27) rotate(5.73) scale(0.64 1)">%</text></g></svg>