<?xml version="1.0" encoding="UTF-8"?>
<svg id="Layer_1" data-name="Layer 1" xmlns="http://www.w3.org/2000/svg" viewBox="0 0 99.28 87.37">
  <defs>
    <style>
      .cls-1 {
        fill: #228ae5;
        stroke-width: 0px;
      }
    </style>
  </defs>
  <path class="cls-1" d="M99.28,6.09v20.86c-1.14,1.02-.83,2.44-.98,3.71-1.25,10.41-5,18.89-16.63,21.33,9.96,10.31,10.16,16.21,1.14,27.18-.94,1.15-1.95,2.26-3.05,3.25-7.18,6.52-12.08,6.56-19.57.37-4.32-3.57-7.36-8.22-10.7-13.07-3.68,6.37-7.89,11.56-13.62,15.46-4.4,3-8.56,2.85-12.87-.04-5.08-3.42-8.7-8.05-11.38-13.48-2.99-6.06-2.12-11.47,2.6-16.32,1.03-1.05,2.17-1.97,3.33-3.01C6.06,47.56,2.68,43.27,1.05,31.66c-.22-1.59.25-3.35-1.05-4.71V6.09C4.64-.44,9.41-1.71,17.04,2.26c12.79,6.64,22.39,16.73,29.97,28.87.81,1.29,1,3.18,3.02,3.77.86-1.43,1.66-2.85,2.54-4.22,7.66-12.06,17.23-22.18,30.16-28.63,7.48-3.72,12.24-2.36,16.55,4.04Z"/>
</svg>