<svg id="Layer_1" data-name="Layer 1" xmlns="http://www.w3.org/2000/svg" viewBox="0 0 390.44 314.49"><defs><style>.cls-1{fill:#fff;}</style></defs><path class="cls-1" d="M495.89,302.24a162.58,162.58,0,0,1-46.05,12.6,80.07,80.07,0,0,0,35.26-44,160.9,160.9,0,0,1-50.89,19.25,80.07,80.07,0,0,0-58.41-25c-44.24,0-80.11,35.55-80.11,79.38a79.89,79.89,0,0,0,2.09,18.11,228.21,228.21,0,0,1-165.09-83,79.14,79.14,0,0,0,24.78,106.08,81.49,81.49,0,0,1-36.32-9.91v.93c0,38.51,27.62,70.58,64.23,77.87a79.7,79.7,0,0,1-21,2.85,84.93,84.93,0,0,1-15.09-1.46A80.25,80.25,0,0,0,224,511.06a161.91,161.91,0,0,1-99.49,34,158.4,158.4,0,0,1-19.1-1.13,228.9,228.9,0,0,0,122.81,35.63c147.32,0,227.92-121,227.92-225.93,0-3.44-.11-6.86-.26-10.25a157.57,157.57,0,0,0,40-41.12" transform="translate(-105.45 -265.05)"/></svg>