<svg id="Layer_1" data-name="Layer 1" xmlns="http://www.w3.org/2000/svg" viewBox="0 0 415.61 413.31"><defs><style>.cls-1{fill:#fff;}.cls-2{fill:#f9c81e;}</style></defs><path class="cls-1" d="M50.92,151.5c19,.12,32,5.89,42.82,16.71q53.13,53.1,106.18,106.25c8,8,7.89,8,15.73.14C251.14,239.05,286.5,203.37,322.2,168c30.17-29.88,79.29-17.58,91,22.86,5.78,19.91,1.17,38.1-13.51,52.87q-76.33,76.76-153.14,153.18c-22.36,22.23-55.28,22.08-77.7-.19Q104.5,332.84,40.53,268.58c-8.43-8.43-17.14-16.6-25.16-25.4C-.2,226.12-4.2,206.32,4.59,185,13.62,163.08,31.15,152.69,50.92,151.5Z" transform="translate(-0.01 -0.21)"/><path class="cls-2" d="M148.17,59.68C148.73,26.25,174.05.21,207.42.21c34.34,0,59.39,26.15,59.86,59.22.45,32-27.1,59.58-59.39,59.22C175.8,118.3,148.08,94.11,148.17,59.68Z" transform="translate(-0.01 -0.21)"/></svg>